<svg width="32" height="30" viewBox="0 0 32 30" fill="none" xmlns="http://www.w3.org/2000/svg">
<path d="M24.0002 23.7494C23.7082 23.75 23.4251 23.6483 23.2002 23.4619C23.0737 23.357 22.969 23.2281 22.8924 23.0827C22.8157 22.9373 22.7684 22.7781 22.7533 22.6144C22.7382 22.4507 22.7556 22.2856 22.8044 22.1286C22.8532 21.9716 22.9325 21.8257 23.0377 21.6994L28.6377 14.9994L23.2377 8.28694C23.1339 8.15908 23.0564 8.01196 23.0096 7.85403C22.9628 7.69611 22.9477 7.53049 22.9651 7.36671C22.9825 7.20292 23.0321 7.0442 23.1111 6.89965C23.1901 6.75511 23.2968 6.62759 23.4252 6.52444C23.5546 6.41064 23.706 6.32481 23.8701 6.27232C24.0342 6.21983 24.2073 6.20183 24.3787 6.21944C24.5501 6.23704 24.716 6.28988 24.8659 6.37463C25.0159 6.45938 25.1468 6.57422 25.2502 6.71194L31.2877 14.2119C31.4716 14.4356 31.5721 14.7162 31.5721 15.0057C31.5721 15.2952 31.4716 15.5758 31.2877 15.7994L25.0377 23.2994C24.9124 23.4507 24.7531 23.5703 24.5728 23.6485C24.3925 23.7267 24.1964 23.7613 24.0002 23.7494Z" fill="#A2A2A2" style="fill:#A2A2A2;fill:color(display-p3 0.6333 0.6333 0.6333);fill-opacity:1;"/>
</svg>
