<svg width="17" height="16" viewBox="0 0 17 16" fill="none" xmlns="http://www.w3.org/2000/svg">
<path d="M12.5 4.7C12.5 4.52319 12.4297 4.35362 12.3047 4.2286C12.1797 4.10357 12.0101 4.03333 11.8333 4.03333L6.49996 4C6.32315 4 6.15358 4.07024 6.02855 4.19526C5.90353 4.32029 5.83329 4.48986 5.83329 4.66667C5.83329 4.84348 5.90353 5.01305 6.02855 5.13807C6.15358 5.2631 6.32315 5.33333 6.49996 5.33333H10.2066L4.69329 10.86C4.63081 10.922 4.58121 10.9957 4.54737 11.0769C4.51352 11.1582 4.49609 11.2453 4.49609 11.3333C4.49609 11.4213 4.51352 11.5085 4.54737 11.5897C4.58121 11.671 4.63081 11.7447 4.69329 11.8067C4.75527 11.8692 4.829 11.9187 4.91024 11.9526C4.99148 11.9864 5.07862 12.0039 5.16663 12.0039C5.25463 12.0039 5.34177 11.9864 5.42301 11.9526C5.50425 11.9187 5.57798 11.8692 5.63996 11.8067L11.1666 6.28V10C11.1666 10.1768 11.2369 10.3464 11.3619 10.4714C11.4869 10.5964 11.6565 10.6667 11.8333 10.6667C12.0101 10.6667 12.1797 10.5964 12.3047 10.4714C12.4297 10.3464 12.5 10.1768 12.5 10V4.7Z" fill="#102880" style="fill:#102880;fill:color(display-p3 0.0627 0.1569 0.5020);fill-opacity:1;"/>
</svg>
