<svg width="31" height="30" viewBox="0 0 31 30" fill="none" xmlns="http://www.w3.org/2000/svg">
<path d="M13.0002 23.7494C12.7082 23.75 12.4251 23.6483 12.2002 23.4619C12.0737 23.357 11.969 23.2281 11.8924 23.0827C11.8157 22.9373 11.7684 22.7781 11.7533 22.6144C11.7382 22.4507 11.7556 22.2856 11.8044 22.1286C11.8532 21.9716 11.9325 21.8257 12.0377 21.6994L17.6377 14.9994L12.2377 8.28694C12.1339 8.15908 12.0564 8.01196 12.0096 7.85403C11.9628 7.69611 11.9477 7.53049 11.9651 7.36671C11.9825 7.20292 12.0321 7.0442 12.1111 6.89965C12.1901 6.75511 12.2968 6.62759 12.4252 6.52444C12.5546 6.41064 12.706 6.32481 12.8701 6.27232C13.0342 6.21983 13.2073 6.20183 13.3787 6.21944C13.5501 6.23704 13.716 6.28988 13.8659 6.37463C14.0159 6.45938 14.1468 6.57422 14.2502 6.71194L20.2877 14.2119C20.4716 14.4356 20.5721 14.7162 20.5721 15.0057C20.5721 15.2952 20.4716 15.5758 20.2877 15.7994L14.0377 23.2994C13.9124 23.4507 13.7531 23.5703 13.5728 23.6485C13.3925 23.7267 13.1964 23.7613 13.0002 23.7494Z" fill="#A2A2A2" style="fill:#A2A2A2;fill:color(display-p3 0.6333 0.6333 0.6333);fill-opacity:1;"/>
</svg>
