<svg width="66" height="30" viewBox="0 0 66 30" fill="none" xmlns="http://www.w3.org/2000/svg">
<path d="M58.0002 23.7494C57.7082 23.75 57.4251 23.6483 57.2002 23.4619C57.0737 23.357 56.969 23.2281 56.8924 23.0827C56.8157 22.9373 56.7684 22.7781 56.7533 22.6144C56.7382 22.4507 56.7556 22.2856 56.8044 22.1286C56.8532 21.9716 56.9325 21.8257 57.0377 21.6994L62.6377 14.9994L57.2377 8.28694C57.1339 8.15908 57.0564 8.01196 57.0096 7.85403C56.9628 7.69611 56.9477 7.53049 56.9651 7.36671C56.9825 7.20292 57.0321 7.0442 57.1111 6.89965C57.1901 6.75511 57.2968 6.62759 57.4252 6.52444C57.5546 6.41064 57.706 6.32481 57.8701 6.27232C58.0342 6.21983 58.2073 6.20183 58.3787 6.21944C58.5501 6.23704 58.716 6.28988 58.8659 6.37463C59.0159 6.45938 59.1468 6.57422 59.2502 6.71194L65.2877 14.2119C65.4716 14.4356 65.5721 14.7162 65.5721 15.0057C65.5721 15.2952 65.4716 15.5758 65.2877 15.7994L59.0377 23.2994C58.9124 23.4507 58.7531 23.5703 58.5728 23.6485C58.3925 23.7267 58.1964 23.7613 58.0002 23.7494Z" fill="#A2A2A2" style="fill:#A2A2A2;fill:color(display-p3 0.6333 0.6333 0.6333);fill-opacity:1;"/>
</svg>
