<svg width="24" height="25" viewBox="0 0 24 25" fill="none" xmlns="http://www.w3.org/2000/svg">
<path d="M18.2617 7.69998H5.73991C5.22652 7.69998 4.80078 7.33731 4.80078 6.89998C4.80078 6.46264 5.22652 6.09998 5.73991 6.09998H18.2617C18.775 6.09998 19.2008 6.46264 19.2008 6.89998C19.2008 7.33731 18.775 7.69998 18.2617 7.69998Z" fill="#102880" style="fill:#102880;fill:color(display-p3 0.0627 0.1569 0.5020);fill-opacity:1;"/>
<path d="M18.2617 12.5H5.73991C5.22652 12.5 4.80078 12.1374 4.80078 11.7C4.80078 11.2627 5.22652 10.9 5.73991 10.9H18.2617C18.775 10.9 19.2008 11.2627 19.2008 11.7C19.2008 12.1374 18.775 12.5 18.2617 12.5Z" fill="#102880" style="fill:#102880;fill:color(display-p3 0.0627 0.1569 0.5020);fill-opacity:1;"/>
<path d="M18.2617 17.3H5.73991C5.22652 17.3 4.80078 16.9373 4.80078 16.5C4.80078 16.0626 5.22652 15.7 5.73991 15.7H18.2617C18.775 15.7 19.2008 16.0626 19.2008 16.5C19.2008 16.9373 18.775 17.3 18.2617 17.3Z" fill="#102880" style="fill:#102880;fill:color(display-p3 0.0627 0.1569 0.5020);fill-opacity:1;"/>
</svg>
