<svg width="50" height="50" viewBox="0 0 50 50" fill="none" xmlns="http://www.w3.org/2000/svg">
<path d="M27.236 7.0061C26.6563 6.94536 26.1301 7.34486 26.059 7.92152C25.9869 8.50021 26.3968 9.02647 26.9744 9.09852C28.4058 9.27666 29.8042 9.78344 31.1316 10.3436C31.6741 10.569 32.2884 10.3148 32.5135 9.7814C32.739 9.2439 32.4878 8.62598 31.9513 8.39948C30.4447 7.76511 28.8578 7.20792 27.236 7.0061Z" fill="white" style="fill:white;fill-opacity:1;"/>
<path d="M39.0769 15.5697C39.5413 15.2175 39.6319 14.5553 39.2797 14.0919C38.2922 12.7913 37.1316 11.6308 35.8311 10.6432C35.3667 10.2932 34.7066 10.3807 34.3533 10.8461C34.0011 11.3095 34.0917 11.9717 34.5562 12.3239C35.7044 13.1951 36.7279 14.2186 37.5991 15.3668C37.9524 15.8322 38.6136 15.9202 39.0769 15.5697Z" fill="white" style="fill:white;fill-opacity:1;"/>
<path d="M40.1411 17.4091C39.6046 17.6356 39.3533 18.2535 39.5788 18.791C40.139 20.1184 40.7139 21.587 40.8921 23.0184C40.9612 23.5777 41.4669 24.004 42.0691 23.9339C42.6468 23.8618 43.0566 23.3356 42.9845 22.7569C42.7827 21.135 42.1573 19.4778 41.523 17.9713C41.2965 17.4348 40.6776 17.1866 40.1411 17.4091Z" fill="white" style="fill:white;fill-opacity:1;"/>
<path d="M18.0415 8.39949C17.505 8.62606 17.2537 9.24391 17.4792 9.78141C17.7047 10.316 18.3199 10.5685 18.8611 10.3437C20.1885 9.78345 21.5869 9.27667 23.0183 9.09853C23.596 9.02648 24.0058 8.50023 23.9337 7.92153C23.8617 7.34487 23.3334 6.9453 22.7567 7.00611C21.1349 7.20793 19.548 7.76512 18.0415 8.39949Z" fill="white" style="fill:white;fill-opacity:1;"/>
<path d="M24.9963 42.9924C34.0211 42.9924 41.8692 36.1782 42.9844 27.2358C43.0564 26.6581 42.6466 26.1309 42.069 26.0588C41.4882 25.9939 40.963 26.3966 40.892 26.9742C39.9075 34.8643 32.9595 40.8835 24.9963 40.8835C16.2743 40.8835 9.10894 33.7181 9.10894 24.9961C9.10894 21.152 10.6342 17.411 13.1159 14.5538V14.9029C13.1159 15.4857 13.5876 15.9573 14.1704 15.9573C14.7532 15.9573 15.2249 15.4857 15.2249 14.9029V11.9207C15.2249 11.3378 14.7532 10.8662 14.1704 10.8662H11.1872C10.6044 10.8662 10.1328 11.3378 10.1328 11.9207C10.1328 12.5035 10.6044 12.9744 11.1872 12.9744H11.6951C8.77425 16.2403 7 20.55 7 24.9961C7 34.8807 15.1117 42.9924 24.9963 42.9924Z" fill="white" style="fill:white;fill-opacity:1;"/>
<path d="M12.2734 24.9964C12.2734 31.9741 18.0198 37.7204 24.9974 37.7204C31.9751 37.7204 37.7214 31.9741 37.7214 24.9964C37.7214 18.0188 31.9751 12.2725 24.9974 12.2725C18.0198 12.2725 12.2734 18.0188 12.2734 24.9964ZM26.0519 20.7785C26.0519 20.1957 26.5235 19.7241 27.1064 19.7241C27.6892 19.7241 28.1608 20.1957 28.1608 20.7785V23.942H30.2698V20.7785C30.2698 20.1957 30.7414 19.7241 31.3242 19.7241C31.9071 19.7241 32.3787 20.1957 32.3787 20.7785V29.2143C32.3787 29.7972 31.9071 30.2688 31.3242 30.2688C30.7414 30.2688 30.2698 29.7972 30.2698 29.2143V26.0509H27.1064C26.5235 26.0509 26.0519 25.5793 26.0519 24.9964V20.7785ZM20.7795 21.833C20.1977 21.833 19.725 22.3057 19.725 22.8875C19.725 23.4703 19.2534 23.942 18.6706 23.942C18.0877 23.942 17.6161 23.4703 17.6161 22.8875C17.6161 21.1431 19.0351 19.7241 20.7795 19.7241C22.5239 19.7241 23.9429 21.1431 23.9429 22.8875C23.9429 24.9964 22.5394 26.0489 21.4118 26.8943C20.7871 27.3631 20.3423 27.7381 20.0598 28.1599H22.8885C23.4713 28.1599 23.9429 28.6315 23.9429 29.2143C23.9429 29.7972 23.4713 30.2688 22.8885 30.2688H18.6706C18.0877 30.2688 17.6161 29.7972 17.6161 29.2143C17.6161 27.1054 19.0197 26.0529 20.1473 25.2075C21.2244 24.3992 21.834 23.8925 21.834 22.8875C21.834 22.3056 21.3614 21.833 20.7795 21.833Z" fill="white" style="fill:white;fill-opacity:1;"/>
</svg>
