<svg width="15" height="15" viewBox="0 0 15 15" fill="none" xmlns="http://www.w3.org/2000/svg">
<g clip-path="url(#clip0_2497_2007)">
<path d="M2.92969 9.47058H4.6875C5.01111 9.47058 5.27344 9.20826 5.27344 8.88464C5.27344 8.56103 5.01111 8.29871 4.6875 8.29871H2.92969C2.60607 8.29871 2.34375 8.56103 2.34375 8.88464C2.34375 9.20826 2.60607 9.47058 2.92969 9.47058Z" fill="#102880" style="fill:#102880;fill:color(display-p3 0.0627 0.1569 0.5020);fill-opacity:1;"/>
<path d="M2.92969 7.12683H4.6875C5.01111 7.12683 5.27344 6.86451 5.27344 6.54089C5.27344 6.21728 5.01111 5.95496 4.6875 5.95496H2.92969C2.60607 5.95496 2.34375 6.21728 2.34375 6.54089C2.34375 6.86451 2.60607 7.12683 2.92969 7.12683Z" fill="#102880" style="fill:#102880;fill:color(display-p3 0.0627 0.1569 0.5020);fill-opacity:1;"/>
<path d="M6.37109 8.88468C6.37109 9.2083 6.63342 9.47062 6.95703 9.47062C8.18226 9.47062 9.33415 8.99349 10.2005 8.12712L14.4855 3.84175C15.1724 3.15483 15.1725 2.04287 14.4855 1.35583C13.8001 0.670454 12.685 0.670454 11.9996 1.35583L7.71459 5.6412C6.84825 6.50759 6.37109 7.65946 6.37109 8.88468ZM12.8282 2.18449C13.0566 1.95603 13.4284 1.95603 13.6568 2.18449C13.8858 2.41341 13.8859 2.78411 13.6568 3.01312L9.37186 7.29849C8.88204 7.78833 8.26959 8.11104 7.60373 8.23798C7.73067 7.57215 8.05341 6.9597 8.54319 6.46986L12.8282 2.18449Z" fill="#102880" style="fill:#102880;fill:color(display-p3 0.0627 0.1569 0.5020);fill-opacity:1;"/>
<path d="M1.75781 14.1581C2.1907 14.1581 2.60678 13.9992 2.92945 13.7107L3.73942 12.9862H9.72656C11.342 12.9862 12.6562 11.6719 12.6562 10.0565V8.74217C12.6562 8.41856 12.3939 8.15624 12.0703 8.15624C11.7467 8.15624 11.4844 8.41856 11.4844 8.74217V10.0565C11.4844 11.0258 10.6958 11.8143 9.72656 11.8143H3.51562C3.37148 11.8143 3.23241 11.8674 3.12498 11.9635L2.14828 12.8372C2.04079 12.9333 1.90213 12.9862 1.75781 12.9862C1.43473 12.9862 1.17188 12.7234 1.17188 12.4003V5.36902C1.17188 4.39976 1.96043 3.61121 2.92969 3.61121L7.84421 3.49988C8.16782 3.49988 8.43015 3.34888 8.43015 3.02527C8.43015 2.70166 8.16782 2.43933 7.84421 2.43933H2.92969C1.31423 2.43933 0 3.75359 0 5.36902V12.4003C0 13.3695 0.788555 14.1581 1.75781 14.1581Z" fill="#102880" style="fill:#102880;fill:color(display-p3 0.0627 0.1569 0.5020);fill-opacity:1;"/>
</g>
<defs>
<clipPath id="clip0_2497_2007">
<rect width="15" height="15" fill="white" style="fill:white;fill-opacity:1;"/>
</clipPath>
</defs>
</svg>
