<svg width="15" height="15" viewBox="0 0 15 15" fill="none" xmlns="http://www.w3.org/2000/svg">
<g clip-path="url(#clip0_2497_1992)">
<path d="M14.0705 10.7806C13.962 10.5397 13.7882 10.334 13.5688 10.1868L11.493 8.71337C11.329 8.5981 11.1532 8.50051 10.9687 8.42224C10.7746 8.3353 10.5625 8.2962 10.3502 8.3082C10.1379 8.3202 9.93162 8.38296 9.74859 8.4912C9.54058 8.60596 9.35107 8.75144 9.18645 8.92272L8.73602 9.34204C8.47737 9.195 8.23494 9.02111 8.01275 8.82324C7.72775 8.58154 7.4201 8.29711 7.05084 7.93395C6.76214 7.63976 6.47222 7.32421 6.16766 6.97145C5.97723 6.75638 5.80608 6.52498 5.65619 6.27992C5.65191 6.2671 5.64642 6.25305 5.64032 6.2372L6.06634 5.79407C6.22868 5.63628 6.36947 5.45774 6.48504 5.26307C6.61431 5.05683 6.68343 4.8186 6.68462 4.5752C6.6819 4.38253 6.64039 4.19238 6.56255 4.01612C6.48359 3.8276 6.38215 3.6493 6.26043 3.48511L4.81329 1.4447C4.66167 1.22529 4.4538 1.05073 4.21148 0.939336C3.99016 0.834698 3.7483 0.780695 3.50349 0.781254C3.19911 0.786224 2.89881 0.852076 2.62029 0.974931C2.34177 1.09779 2.09066 1.27516 1.88177 1.49659C1.51811 1.83331 1.23395 2.24675 1.04989 2.70691C0.876304 3.14637 0.78845 3.61501 0.791073 4.0875C0.803487 4.85512 0.969077 5.61252 1.27813 6.31529C1.62156 7.10065 2.04994 7.84605 2.5556 8.53819C3.09979 9.28264 3.69922 9.9851 4.34881 10.6396C5.00461 11.2895 5.70785 11.8897 6.45269 12.4353C7.14898 12.9484 7.90127 13.3809 8.69512 13.7243C9.3945 14.0374 10.15 14.2056 10.9162 14.2187C11.3951 14.2212 11.8698 14.1286 12.3127 13.9465C12.7709 13.7555 13.1795 13.4624 13.5071 13.0895C13.711 12.8655 13.88 12.612 14.0082 12.3376C14.1403 12.0625 14.2091 11.7614 14.2096 11.4562C14.2079 11.2241 14.1606 10.9946 14.0705 10.7806ZM13.1605 11.9372C13.0716 12.128 12.9543 12.3042 12.8126 12.4597C12.5776 12.7289 12.2843 12.941 11.955 13.0798C11.4828 13.2385 10.9835 13.3009 10.4867 13.2635C9.98996 13.2261 9.50571 13.0895 9.06255 12.8619C8.33419 12.5462 7.64395 12.149 7.00505 11.6778C6.29935 11.161 5.63305 10.5924 5.01165 9.9768C4.39724 9.35761 3.83025 8.69311 3.31549 7.9889C2.85074 7.35421 2.45714 6.67038 2.14178 5.94971C1.88174 5.36258 1.74127 4.72952 1.72857 4.0875C1.72614 3.7333 1.79161 3.38191 1.92144 3.05235C2.05702 2.71712 2.26551 2.41627 2.53179 2.17161C2.65498 2.03467 2.80453 1.92398 2.97149 1.84616C3.13845 1.76835 3.31939 1.72502 3.50349 1.71875C3.61068 1.71842 3.7166 1.74198 3.81354 1.78772C3.90759 1.83068 3.98819 1.8984 4.0467 1.98365L5.49871 4.03077C5.57862 4.1382 5.64542 4.25479 5.69769 4.37805C5.72621 4.44015 5.74298 4.50699 5.74712 4.5752C5.74417 4.65138 5.71985 4.72519 5.67694 4.78821C5.5991 4.91643 5.50493 5.034 5.39679 5.13794L4.92987 5.62375C4.8528 5.69964 4.79191 5.79036 4.75089 5.89044C4.70987 5.99052 4.68957 6.09788 4.69122 6.20603C4.69246 6.31119 4.70891 6.41563 4.74005 6.51609L4.81755 6.70102C5.00152 7.01413 5.21511 7.30886 5.45536 7.58118C5.7764 7.95227 6.07911 8.28247 6.38737 8.5968C6.77982 8.98255 7.10392 9.28162 7.40665 9.53858C7.68076 9.77938 7.97897 9.99128 8.29655 10.1709L8.46256 10.2441C8.61614 10.301 8.78255 10.3138 8.94302 10.2811C9.10348 10.2484 9.25163 10.1716 9.37077 10.0592L9.84745 9.58802C9.953 9.4767 10.0748 9.38204 10.2088 9.30725C10.2649 9.26019 10.335 9.233 10.4082 9.2299C10.4814 9.22681 10.5535 9.248 10.6134 9.29017C10.7344 9.34206 10.8496 9.4065 10.9571 9.48243L13.0304 10.9546C13.1054 11.0001 13.1663 11.0656 13.2062 11.1438C13.2488 11.2425 13.2712 11.3488 13.2721 11.4563C13.2715 11.623 13.2333 11.7873 13.1605 11.9372Z" fill="#102880" style="fill:#102880;fill:color(display-p3 0.0627 0.1569 0.5020);fill-opacity:1;"/>
</g>
<defs>
<clipPath id="clip0_2497_1992">
<rect width="15" height="15" fill="white" style="fill:white;fill-opacity:1;"/>
</clipPath>
</defs>
</svg>
