<svg width="62" height="62" viewBox="0 0 62 62" fill="none" xmlns="http://www.w3.org/2000/svg">
<path d="M36.6341 25.5205H35.2259C34.7096 25.5205 34.2871 25.943 34.2871 26.4593C34.2871 26.9757 34.7096 27.3981 35.2259 27.3981H36.6341C37.1505 27.3981 37.573 26.9757 37.573 26.4593C37.573 25.943 37.1505 25.5205 36.6341 25.5205Z" fill="#A2A2A2" style="fill:#A2A2A2;fill:color(display-p3 0.6333 0.6333 0.6333);fill-opacity:1;"/>
<path d="M31.0014 25.5205H23.9603C23.444 25.5205 23.0215 25.943 23.0215 26.4593C23.0215 26.9757 23.444 27.3981 23.9603 27.3981H31.0014C31.5177 27.3981 31.9402 26.9757 31.9402 26.4593C31.9402 25.943 31.5177 25.5205 31.0014 25.5205Z" fill="#A2A2A2" style="fill:#A2A2A2;fill:color(display-p3 0.6333 0.6333 0.6333);fill-opacity:1;"/>
<path d="M46.0224 19.8887H23.9603C23.444 19.8887 23.0215 20.3111 23.0215 20.8275C23.0215 21.3438 23.444 21.7663 23.9603 21.7663H46.0224C46.5387 21.7663 46.9612 21.3438 46.9612 20.8275C46.9612 20.3111 46.5387 19.8887 46.0224 19.8887Z" fill="#A2A2A2" style="fill:#A2A2A2;fill:color(display-p3 0.6333 0.6333 0.6333);fill-opacity:1;"/>
<path d="M50.716 10.5H18.7964C16.2146 10.5 14.1023 12.6123 14.1023 15.1941V25.521H9.40824C7.85919 25.521 6.5918 26.7884 6.5918 28.3374V43.3584C6.5918 44.9075 7.85919 46.1749 9.40824 46.1749H14.1023V50.869C14.1023 51.2445 14.337 51.5731 14.6656 51.7139C14.8064 51.7608 14.9003 51.8078 15.0411 51.8078C15.2758 51.8078 15.5105 51.7139 15.6513 51.5731L21.472 46.4096L21.5189 46.3627C21.6597 46.2218 21.8475 46.1749 22.1291 46.1749H28.2314C29.7805 46.1749 31.0479 44.9075 31.0479 43.3584V36.7868H31.8928C32.5969 36.7868 33.2541 37.0215 33.7704 37.5378L42.5483 45.6585C42.7361 45.7994 42.9708 45.8932 43.2055 45.8932C43.3463 45.8932 43.4402 45.8463 43.581 45.7994C43.9096 45.6585 44.1443 45.33 44.1443 44.9544V36.7868H50.716C53.2977 36.7868 55.4101 34.6744 55.4101 32.0927V15.1941C55.4101 12.6123 53.2977 10.5 50.716 10.5ZM29.1702 43.3584C29.1702 43.8748 28.7478 44.2973 28.2314 44.2973H22.1291C21.3781 44.2973 20.7209 44.532 20.2046 45.0014L15.9799 48.7566V45.2361C15.9799 44.7197 15.5575 44.2973 15.0411 44.2973H9.40824C8.89189 44.2973 8.46942 43.8748 8.46942 43.3584V28.3374C8.46942 27.8211 8.89189 27.3986 9.40824 27.3986H14.1023V32.0927C14.1023 34.6744 16.2146 36.7868 18.7964 36.7868H29.1702V43.3584ZM53.5324 32.0927C53.5324 33.6417 52.265 34.9091 50.716 34.9091H44.1443V32.0927C44.1443 31.5763 43.7218 31.1539 43.2055 31.1539C42.6892 31.1539 42.2667 31.5763 42.2667 32.0927V42.7952L35.0848 36.1296C34.2398 35.3316 33.1133 34.9091 31.8928 34.9091H18.7964C17.2473 34.9091 15.9799 33.6417 15.9799 32.0927V15.1941C15.9799 13.645 17.2473 12.3776 18.7964 12.3776H50.716C52.265 12.3776 53.5324 13.645 53.5324 15.1941V32.0927Z" fill="#A2A2A2" style="fill:#A2A2A2;fill:color(display-p3 0.6333 0.6333 0.6333);fill-opacity:1;"/>
</svg>
