<svg width="62" height="62" viewBox="0 0 62 62" fill="none" xmlns="http://www.w3.org/2000/svg">
<path d="M46.6603 44H15.3397C14.3216 43.9988 13.3456 43.5942 12.6258 42.8749C11.9059 42.1557 11.5011 41.1805 11.5 40.1633V20.8367C11.5011 19.8195 11.9059 18.8443 12.6258 18.1251C13.3456 17.4058 14.3216 17.0012 15.3397 17H46.6603C47.6784 17.0012 48.6544 17.4058 49.3742 18.1251C50.0941 18.8443 50.4989 19.8195 50.5 20.8367V40.1633C50.4989 41.1805 50.0941 42.1557 49.3742 42.8749C48.6544 43.5942 47.6784 43.9988 46.6603 44ZM15.3397 18.4664C14.7107 18.467 14.1077 18.717 13.663 19.1614C13.2183 19.6058 12.9682 20.2083 12.9676 20.8367V40.1633C12.9682 40.7917 13.2183 41.3942 13.663 41.8386C14.1077 42.283 14.7107 42.533 15.3397 42.5336H46.6603C47.2893 42.533 47.8923 42.283 48.337 41.8386C48.7817 41.3942 49.0318 40.7917 49.0324 40.1633V20.8367C49.0318 20.2083 48.7817 19.6058 48.337 19.1614C47.8923 18.717 47.2893 18.467 46.6603 18.4664H15.3397Z" fill="#4F4F4F" style="fill:#4F4F4F;fill:color(display-p3 0.3083 0.3083 0.3083);fill-opacity:1;"/>
<path d="M30.9996 34C30.8175 34.0001 30.6416 33.9344 30.505 33.8154L12.5 18.1075L13.4888 17L30.9996 32.2781L48.5112 17.0018L49.5 18.1094L31.4949 33.8172C31.358 33.936 31.1818 34.001 30.9996 34Z" fill="#4F4F4F" style="fill:#4F4F4F;fill:color(display-p3 0.3083 0.3083 0.3083);fill-opacity:1;"/>
<path d="M12.4863 41.1152L24.3311 27.6193L25.4315 28.585L13.5867 42.081L12.4863 41.1152Z" fill="#4F4F4F" style="fill:#4F4F4F;fill:color(display-p3 0.3083 0.3083 0.3083);fill-opacity:1;"/>
<path d="M36.6055 28.5713L37.7058 27.6056L49.5509 41.1018L48.4505 42.0675L36.6055 28.5713Z" fill="#4F4F4F" style="fill:#4F4F4F;fill:color(display-p3 0.3083 0.3083 0.3083);fill-opacity:1;"/>
</svg>
