<svg width="62" height="62" viewBox="0 0 62 62" fill="none" xmlns="http://www.w3.org/2000/svg">
<path d="M25.0218 34.0941L22.3645 32.8252L20.121 38.3643C20.114 38.3817 20.1072 38.3994 20.1014 38.4171C19.8164 39.2718 19.8798 40.0485 20.2801 40.6034C20.627 41.0849 21.1848 41.3502 21.8507 41.3502H21.851C22.1662 41.3502 22.505 41.2906 22.8577 41.1729C22.8757 41.1671 22.8934 41.1606 22.9106 41.1536L28.4508 38.9105L27.1819 36.2535C26.8424 35.5432 25.7322 34.4332 25.0218 34.0941Z" fill="#4F4F4F" style="fill:#4F4F4F;fill:color(display-p3 0.3083 0.3083 0.3083);fill-opacity:1;"/>
<path d="M46.1985 16.5498L28.4492 34.1453C28.7439 34.5051 28.9892 34.8694 29.1504 35.2035L33.6558 44.5559C34.261 45.8123 35.059 45.9998 35.4805 45.9998H35.4807C35.8574 45.9998 36.7879 45.8374 37.294 44.3324L46.0959 18.1556C46.2931 17.5686 46.3258 17.0182 46.1985 16.5498Z" fill="#4F4F4F" style="fill:#4F4F4F;fill:color(display-p3 0.3083 0.3083 0.3083);fill-opacity:1;"/>
<path d="M26.6659 32.825L44.725 15.0766C44.5357 15.0261 44.3326 15 44.1187 15C43.7918 15 43.4412 15.0607 43.076 15.1804L16.2112 23.9811C14.7899 24.4469 14.5308 25.2599 14.5029 25.703C14.4749 26.1462 14.63 26.9844 15.9818 27.6187L25.5801 32.1238C25.9228 32.285 26.2966 32.5304 26.6659 32.825Z" fill="#4F4F4F" style="fill:#4F4F4F;fill:color(display-p3 0.3083 0.3083 0.3083);fill-opacity:1;"/>
</svg>
