<svg width="15" height="15" viewBox="0 0 15 15" fill="none" xmlns="http://www.w3.org/2000/svg">
<path d="M7.34414 11.875C7.34414 11.9993 7.29475 12.1186 7.20685 12.2065C7.11894 12.2944 6.99971 12.3438 6.87539 12.3438H3.12539C2.80873 12.3805 2.48786 12.3451 2.1868 12.2403C1.88574 12.1355 1.61228 11.964 1.38686 11.7385C1.16145 11.5131 0.989926 11.2397 0.885119 10.9386C0.780312 10.6375 0.744936 10.3167 0.781639 10V4.37502C0.744936 4.05836 0.780312 3.7375 0.885119 3.43644C0.989926 3.13538 1.16145 2.86191 1.38686 2.6365C1.61228 2.41109 1.88574 2.23956 2.1868 2.13475C2.48786 2.02995 2.80873 1.99457 3.12539 2.03127H10.6254C10.9421 1.99457 11.2629 2.02995 11.564 2.13475C11.865 2.23956 12.1385 2.41109 12.3639 2.6365C12.5893 2.86191 12.7609 3.13538 12.8657 3.43644C12.9705 3.7375 13.0058 4.05836 12.9691 4.37502V6.25002C12.9691 6.37434 12.9198 6.49357 12.8318 6.58148C12.7439 6.66939 12.6247 6.71877 12.5004 6.71877C12.3761 6.71877 12.2568 6.66939 12.1689 6.58148C12.081 6.49357 12.0316 6.37434 12.0316 6.25002V4.37502C12.0316 3.3894 11.611 2.96877 10.6254 2.96877H3.12539C2.13976 2.96877 1.71914 3.3894 1.71914 4.37502V10C1.71914 10.9856 2.13976 11.4063 3.12539 11.4063H6.87539C6.99971 11.4063 7.11894 11.4557 7.20685 11.5436C7.29475 11.6315 7.34414 11.7507 7.34414 11.875ZM10.6916 4.7244C10.6555 4.67456 10.6099 4.63235 10.5574 4.60017C10.505 4.568 10.4467 4.54651 10.3859 4.53693C10.3251 4.52735 10.263 4.52987 10.2032 4.54434C10.1433 4.55881 10.087 4.58496 10.0373 4.62127L6.96664 6.85377C6.94009 6.87299 6.90816 6.88333 6.87539 6.88333C6.84262 6.88333 6.81069 6.87299 6.78414 6.85377L3.71351 4.62127C3.66378 4.58508 3.6074 4.55903 3.54759 4.54463C3.48779 4.53022 3.42573 4.52773 3.36497 4.53731C3.3042 4.54689 3.24592 4.56834 3.19345 4.60044C3.14097 4.63254 3.09533 4.67466 3.05914 4.7244C3.02294 4.77414 2.9969 4.83052 2.98249 4.89032C2.96809 4.95012 2.9656 5.01218 2.97518 5.07294C2.98475 5.13371 3.0062 5.19199 3.0383 5.24446C3.0704 5.29694 3.11253 5.34258 3.16226 5.37877L6.23226 7.6119C6.41895 7.74832 6.64417 7.82185 6.87539 7.82185C7.10661 7.82185 7.33183 7.74832 7.51851 7.6119L10.5885 5.37877C10.6384 5.34266 10.6806 5.29705 10.7127 5.24458C10.7449 5.19211 10.7664 5.1338 10.776 5.073C10.7856 5.0122 10.783 4.95011 10.7686 4.89029C10.7541 4.83047 10.728 4.77409 10.6916 4.7244ZM14.2191 9.30127C14.2192 9.43592 14.1926 9.56924 14.1409 9.69356C14.0892 9.81788 14.0134 9.93075 13.9179 10.0256L10.4704 13.4569C10.3826 13.5444 10.2637 13.5936 10.1398 13.5938H8.75039C8.62607 13.5938 8.50684 13.5444 8.41893 13.4565C8.33103 13.3686 8.28164 13.2493 8.28164 13.125V11.7363C8.28152 11.6749 8.29356 11.614 8.31705 11.5573C8.34054 11.5005 8.37502 11.449 8.41851 11.4056L11.8504 7.95752C11.9452 7.86184 12.058 7.78594 12.1824 7.73423C12.3067 7.68251 12.4401 7.65602 12.5748 7.65627C12.7093 7.6558 12.8425 7.68208 12.9668 7.73358C13.091 7.78508 13.2038 7.86078 13.2985 7.95627L13.9179 8.57565C14.0136 8.67064 14.0896 8.78369 14.1413 8.90825C14.193 9.03281 14.2195 9.1664 14.2191 9.30127ZM12.5141 8.6194L12.1185 9.0169L12.8585 9.7569L13.256 9.36127C13.2643 9.35316 13.2709 9.34343 13.2753 9.33268C13.2797 9.32193 13.2819 9.31039 13.2816 9.29877C13.2818 9.28717 13.2796 9.27565 13.2752 9.26491C13.2708 9.25417 13.2643 9.24443 13.256 9.23627L12.6373 8.61752C12.6292 8.60915 12.6195 8.60254 12.6087 8.59813C12.598 8.59372 12.5864 8.5916 12.5748 8.5919C12.5633 8.59227 12.5521 8.59489 12.5417 8.59961C12.5313 8.60433 12.5219 8.61105 12.5141 8.6194ZM12.1941 10.4181L11.4573 9.68127L9.21914 11.9313V12.6563H9.94601L12.1941 10.4181Z" fill="#102880" style="fill:#102880;fill:color(display-p3 0.0627 0.1569 0.5020);fill-opacity:1;"/>
</svg>
