<svg width="50" height="50" viewBox="0 0 50 50" fill="none" xmlns="http://www.w3.org/2000/svg">
<path d="M24.3476 32.0125L20.7788 43.7427L18.7465 38.3284C18.6995 38.2034 18.5949 38.1072 18.4642 38.0693C18.3336 38.031 18.1922 38.0559 18.0828 38.1355L13.3535 41.5852L17.146 29.1182C17.3618 29.1958 17.5564 29.2869 17.7153 29.3999C18.1307 29.6953 18.4617 30.2483 18.8122 30.8333C19.3216 31.6833 19.8482 32.5625 20.7688 32.8547C20.9759 32.9204 21.1857 32.949 21.3975 32.949C22.0873 32.949 22.7968 32.6482 23.4877 32.355C23.774 32.2336 24.0643 32.1106 24.3476 32.0125Z" fill="white" style="fill:white;fill-opacity:1;"/>
<path d="M37.2807 41.5852L32.5515 38.1355C32.442 38.0559 32.3006 38.0313 32.17 38.0693C32.0393 38.1074 31.9347 38.2034 31.8877 38.3284L29.8555 43.7427L26.2871 32.0127C26.5704 32.1106 26.8607 32.2339 27.1462 32.355C28.0498 32.738 28.9841 33.1345 29.8652 32.8547C30.7858 32.5627 31.3124 31.6833 31.8218 30.8333C32.1722 30.2483 32.5033 29.6956 32.9187 29.3999C33.0778 29.2866 33.2724 29.1956 33.488 29.1182L37.2807 41.5852Z" fill="white" style="fill:white;fill-opacity:1;"/>
<path d="M28.8438 18.2273L27.1483 19.7053C27.0322 19.8066 26.981 19.9612 27.0139 20.1101L27.4963 22.2798L25.534 21.1606C25.3996 21.0837 25.2333 21.0837 25.0989 21.1606L23.1366 22.2798L23.619 20.1101C23.6519 19.9612 23.6007 19.8066 23.4846 19.7053L21.7891 18.2273L24.0496 18.0054C24.2045 17.99 24.3392 17.8945 24.4019 17.7551L25.3164 15.7227L26.231 17.7551C26.294 17.8945 26.4284 17.99 26.5833 18.0054L28.8438 18.2273Z" fill="white" style="fill:white;fill-opacity:1;"/>
<path d="M38.0132 17.2629C37.5193 16.7209 37.0084 16.1606 36.7983 15.5273C36.578 14.8643 36.6532 14.0964 36.7254 13.354C36.8083 12.5049 36.8865 11.7031 36.5238 11.2161C36.155 10.7207 35.3446 10.5459 34.4868 10.3606C33.7458 10.2004 32.9799 10.0349 32.4103 9.62988C31.8487 9.23047 31.456 8.57471 31.076 7.94043C30.6286 7.1936 30.2062 6.48853 29.5984 6.29565C29.0278 6.11475 28.2809 6.43164 27.4897 6.76685C26.7805 7.06763 26.0468 7.37866 25.3168 7.37866C24.5869 7.37866 23.8532 7.06763 23.1439 6.76685C22.5119 6.49878 21.9078 6.24268 21.3997 6.24268C21.2718 6.24268 21.1497 6.25903 21.035 6.29541C20.4272 6.48828 20.0048 7.1936 19.5573 7.94019C19.1774 8.57446 18.7847 9.23023 18.2231 9.62964C17.6535 10.0347 16.8873 10.2002 16.1466 10.3604C15.2885 10.5457 14.4784 10.7205 14.1096 11.2158C13.7467 11.7029 13.8251 12.5049 13.908 13.3538C13.9805 14.0962 14.0554 14.864 13.8351 15.5271C13.6247 16.1604 13.1139 16.7207 12.6202 17.2627C12.0259 17.9148 11.4648 18.5305 11.4648 19.1733C11.4648 19.8162 12.0259 20.4319 12.6202 21.084C13.1141 21.626 13.625 22.1863 13.8351 22.8193C14.0554 23.4827 13.9802 24.2505 13.908 24.9929C13.8251 25.8418 13.7469 26.6438 14.1096 27.1309C14.4784 27.6262 15.2888 27.801 16.1466 27.9863C16.4189 28.0452 16.6947 28.1045 16.9628 28.1765C17.4242 28.3003 17.8628 28.4607 18.2231 28.7168C18.7847 29.116 19.1774 29.772 19.5573 30.406C20.0048 31.1531 20.4272 31.8584 21.035 32.0513C21.6053 32.2319 22.3525 31.9153 23.1437 31.5798C23.7215 31.3347 24.3156 31.083 24.9101 30.998C25.0458 30.9788 25.1812 30.968 25.3166 30.968C25.4462 30.968 25.5761 30.9778 25.7058 30.9956C26.3066 31.0781 26.9061 31.3325 27.4895 31.5798C28.2806 31.9155 29.0278 32.2324 29.5981 32.0513C30.2059 31.8584 30.6284 31.1528 31.0758 30.406C31.4558 29.772 31.8485 29.116 32.4101 28.7168C32.7703 28.4607 33.209 28.3001 33.6704 28.1765C33.9384 28.1045 34.2142 28.0452 34.4865 27.9863C35.3446 27.801 36.1548 27.6262 36.5235 27.1309C36.8865 26.6438 36.808 25.8416 36.7251 24.9929C36.6527 24.2505 36.5777 23.4827 36.7981 22.8193C37.0084 22.1863 37.5193 21.626 38.0129 21.084C38.607 20.4319 39.1683 19.8162 39.1683 19.1733C39.1683 18.5305 38.6072 17.915 38.0132 17.2629ZM31.2714 24.9932C29.6806 26.5476 27.5662 27.4036 25.3166 27.4036C23.067 27.4036 20.9526 26.5476 19.3617 24.9932C17.7712 23.4385 16.8951 21.3718 16.8951 19.1736C16.8951 16.9751 17.7712 14.9082 19.3617 13.354C20.9526 11.7996 23.067 10.9434 25.3166 10.9434C27.5662 10.9434 29.6806 11.7996 31.2714 13.354C32.862 14.9084 33.7381 16.9751 33.7381 19.1736C33.7381 21.3718 32.862 23.4385 31.2714 24.9932Z" fill="white" style="fill:white;fill-opacity:1;"/>
<path d="M25.3155 11.7876C21.148 11.7876 17.7578 15.1008 17.7578 19.1736C17.7578 23.2459 21.148 26.5593 25.3155 26.5593C29.4829 26.5593 32.8731 23.2461 32.8731 19.1736C32.8731 15.1008 29.4829 11.7876 25.3155 11.7876ZM30.1509 18.2185L27.9105 20.1719L28.5483 23.0386C28.5848 23.2024 28.5186 23.3716 28.3802 23.47C28.3047 23.5234 28.2158 23.5505 28.1264 23.5505C28.0514 23.5505 27.976 23.5315 27.9085 23.4929L25.3155 22.0142L22.7224 23.4929C22.5745 23.5774 22.3891 23.5684 22.2507 23.47C22.1123 23.3716 22.0461 23.2024 22.0826 23.0386L22.7204 20.1719L20.48 18.2185C20.3524 18.1072 20.3039 17.9321 20.3569 17.7732C20.4098 17.6138 20.554 17.5005 20.7244 17.4834L23.7116 17.1902L24.92 14.5044C24.9892 14.3511 25.1441 14.2522 25.3155 14.2522C25.4868 14.2522 25.642 14.3511 25.7109 14.5044L26.9193 17.1902L29.9066 17.4834C30.0769 17.5002 30.2211 17.6138 30.274 17.7732C30.327 17.9321 30.2788 18.1069 30.1509 18.2185Z" fill="white" style="fill:white;fill-opacity:1;"/>
</svg>
