<svg width="15" height="16" viewBox="0 0 15 16" fill="none" xmlns="http://www.w3.org/2000/svg">
<g clip-path="url(#clip0_2497_1220)">
<path d="M8.51322 15.4707H6.10641C5.70439 15.4707 5.37737 15.1443 5.37737 14.7431V9.325H3.97318C3.57116 9.325 3.24414 8.9985 3.24414 8.59738V6.27572C3.24414 5.87449 3.57116 5.5481 3.97318 5.5481H5.37737V4.3855C5.37737 3.23273 5.74005 2.25198 6.42609 1.54942C7.11523 0.843666 8.0783 0.470703 9.21119 0.470703L11.0467 0.473679C11.4481 0.474365 11.7745 0.800751 11.7745 1.20129V3.3569C11.7745 3.75813 11.4476 4.08452 11.0457 4.08452L9.80985 4.08498C9.43295 4.08498 9.33697 4.16039 9.31645 4.18351C9.28262 4.22185 9.24237 4.33022 9.24237 4.62949V5.54799H10.9528C11.0816 5.54799 11.2064 5.57969 11.3136 5.63943C11.5448 5.7684 11.6886 6.01228 11.6886 6.27583L11.6877 8.5975C11.6877 8.9985 11.3607 9.32488 10.9587 9.32488H9.24237V14.7431C9.24237 15.1443 8.91524 15.4707 8.51322 15.4707ZM6.25845 14.5913H8.36118V8.93132C8.36118 8.66341 8.57961 8.44552 8.84793 8.44552H10.8066L10.8074 6.42747H8.84781C8.5795 6.42747 8.36118 6.20957 8.36118 5.94167V4.62949C8.36118 4.28593 8.39615 3.89523 8.65598 3.60158C8.96993 3.24658 9.46471 3.20561 9.80962 3.20561L10.8934 3.20515V1.35281L9.2105 1.35007C7.38985 1.35007 6.25845 2.51324 6.25845 4.3855V5.94167C6.25845 6.20946 6.04013 6.42747 5.77181 6.42747H4.12523V8.44552H5.77181C6.04013 8.44552 6.25845 8.66341 6.25845 8.93132V14.5913Z" fill="white" style="fill:white;fill-opacity:1;"/>
</g>
<defs>
<clipPath id="clip0_2497_1220">
<rect width="15" height="15" fill="white" style="fill:white;fill-opacity:1;" transform="translate(0 0.5)"/>
</clipPath>
</defs>
</svg>
