<svg width="15" height="15" viewBox="0 0 15 15" fill="none" xmlns="http://www.w3.org/2000/svg">
<g clip-path="url(#clip0_2497_2034)">
<path d="M8.51322 14.9707H6.10641C5.70439 14.9707 5.37737 14.6443 5.37737 14.2431V8.825H3.97318C3.57116 8.825 3.24414 8.4985 3.24414 8.09738V5.77572C3.24414 5.37449 3.57116 5.0481 3.97318 5.0481H5.37737V3.8855C5.37737 2.73273 5.74005 1.75198 6.42609 1.04942C7.11523 0.343666 8.0783 -0.0292969 9.21119 -0.0292969L11.0467 -0.0263214C11.4481 -0.0256348 11.7745 0.300751 11.7745 0.701294V2.8569C11.7745 3.25813 11.4476 3.58452 11.0457 3.58452L9.80985 3.58498C9.43295 3.58498 9.33697 3.66039 9.31645 3.68351C9.28262 3.72185 9.24237 3.83022 9.24237 4.12949V5.04799H10.9528C11.0816 5.04799 11.2064 5.07969 11.3136 5.13943C11.5448 5.2684 11.6886 5.51228 11.6886 5.77583L11.6877 8.0975C11.6877 8.4985 11.3607 8.82488 10.9587 8.82488H9.24237V14.2431C9.24237 14.6443 8.91524 14.9707 8.51322 14.9707ZM6.25845 14.0913H8.36118V8.43132C8.36118 8.16341 8.57961 7.94552 8.84793 7.94552H10.8066L10.8074 5.92747H8.84781C8.5795 5.92747 8.36118 5.70957 8.36118 5.44167V4.12949C8.36118 3.78593 8.39615 3.39523 8.65598 3.10158C8.96993 2.74658 9.46471 2.70561 9.80962 2.70561L10.8934 2.70515V0.852814L9.2105 0.850067C7.38985 0.850067 6.25845 2.01324 6.25845 3.8855V5.44167C6.25845 5.70946 6.04013 5.92747 5.77181 5.92747H4.12523V7.94552H5.77181C6.04013 7.94552 6.25845 8.16341 6.25845 8.43132V14.0913Z" fill="#102880" style="fill:#102880;fill:color(display-p3 0.0627 0.1569 0.5020);fill-opacity:1;"/>
</g>
<defs>
<clipPath id="clip0_2497_2034">
<rect width="15" height="15" fill="white" style="fill:white;fill-opacity:1;"/>
</clipPath>
</defs>
</svg>
