<svg width="13" height="13" viewBox="0 0 13 13" fill="none" xmlns="http://www.w3.org/2000/svg">
<g clip-path="url(#clip0_1256_5991)">
<path d="M7.40054 1.43507L1.86535 0.593967C1.60849 0.553675 1.34658 0.624187 1.15016 0.790393C0.953732 0.961637 0.837891 1.20843 0.837891 1.46529V12.0773C0.837891 12.3544 1.06454 12.581 1.34155 12.581H2.97843V9.9368C2.97843 9.44826 3.37129 9.0554 3.85983 9.0554H5.11898C5.60752 9.0554 6.00037 9.44826 6.00037 9.9368V12.581H8.14092V2.3064C8.14092 1.87326 7.82865 1.50559 7.40054 1.43507ZM3.608 7.92218H2.85252C2.644 7.92218 2.47478 7.75295 2.47478 7.54443C2.47478 7.33592 2.644 7.16669 2.85252 7.16669H3.608C3.81652 7.16669 3.98575 7.33592 3.98575 7.54443C3.98575 7.75295 3.81652 7.92218 3.608 7.92218ZM3.608 6.41121H2.85252C2.644 6.41121 2.47478 6.24198 2.47478 6.03346C2.47478 5.82495 2.644 5.65572 2.85252 5.65572H3.608C3.81652 5.65572 3.98575 5.82495 3.98575 6.03346C3.98575 6.24198 3.81652 6.41121 3.608 6.41121ZM3.608 4.90023H2.85252C2.644 4.90023 2.47478 4.73101 2.47478 4.52249C2.47478 4.31398 2.644 4.14475 2.85252 4.14475H3.608C3.81652 4.14475 3.98575 4.31398 3.98575 4.52249C3.98575 4.73101 3.81652 4.90023 3.608 4.90023ZM3.608 3.38926H2.85252C2.644 3.38926 2.47478 3.22003 2.47478 3.01152C2.47478 2.80301 2.644 2.63378 2.85252 2.63378H3.608C3.81652 2.63378 3.98575 2.80301 3.98575 3.01152C3.98575 3.22003 3.81652 3.38926 3.608 3.38926ZM6.12629 7.92218H5.3708C5.16229 7.92218 4.99306 7.75295 4.99306 7.54443C4.99306 7.33592 5.16229 7.16669 5.3708 7.16669H6.12629C6.3348 7.16669 6.50403 7.33592 6.50403 7.54443C6.50403 7.75295 6.3348 7.92218 6.12629 7.92218ZM6.12629 6.41121H5.3708C5.16229 6.41121 4.99306 6.24198 4.99306 6.03346C4.99306 5.82495 5.16229 5.65572 5.3708 5.65572H6.12629C6.3348 5.65572 6.50403 5.82495 6.50403 6.03346C6.50403 6.24198 6.3348 6.41121 6.12629 6.41121ZM6.12629 4.90023H5.3708C5.16229 4.90023 4.99306 4.73101 4.99306 4.52249C4.99306 4.31398 5.16229 4.14475 5.3708 4.14475H6.12629C6.3348 4.14475 6.50403 4.31398 6.50403 4.52249C6.50403 4.73101 6.3348 4.90023 6.12629 4.90023ZM6.12629 3.38926H5.3708C5.16229 3.38926 4.99306 3.22003 4.99306 3.01152C4.99306 2.80301 5.16229 2.63378 5.3708 2.63378H6.12629C6.3348 2.63378 6.50403 2.80301 6.50403 3.01152C6.50403 3.22003 6.3348 3.38926 6.12629 3.38926Z" fill="url(#paint0_linear_1256_5991)" style=""/>
<path d="M12.2306 5.95383L8.64453 5.20288V12.581H12.0442C12.5302 12.581 12.9256 12.1856 12.9256 11.6996V6.81509C12.9256 6.39907 12.6421 6.045 12.2306 5.95383ZM11.0369 11.07H10.2814C10.0729 11.07 9.90367 10.9008 9.90367 10.6922C9.90367 10.4837 10.0729 10.3145 10.2814 10.3145H11.0369C11.2454 10.3145 11.4146 10.4837 11.4146 10.6922C11.4146 10.9008 11.2454 11.07 11.0369 11.07ZM11.0369 9.55901H10.2814C10.0729 9.55901 9.90367 9.38978 9.90367 9.18127C9.90367 8.97275 10.0729 8.80353 10.2814 8.80353H11.0369C11.2454 8.80353 11.4146 8.97275 11.4146 9.18127C11.4146 9.38978 11.2454 9.55901 11.0369 9.55901ZM11.0369 8.04804H10.2814C10.0729 8.04804 9.90367 7.87881 9.90367 7.6703C9.90367 7.46178 10.0729 7.29255 10.2814 7.29255H11.0369C11.2454 7.29255 11.4146 7.46178 11.4146 7.6703C11.4146 7.87881 11.2454 8.04804 11.0369 8.04804Z" fill="url(#paint1_linear_1256_5991)" style=""/>
</g>
<defs>
<linearGradient id="paint0_linear_1256_5991" x1="8.37073" y1="-1.30493" x2="-4.64035" y2="10.6159" gradientUnits="userSpaceOnUse">
<stop stop-color="#102880" style="stop-color:#102880;stop-color:color(display-p3 0.0627 0.1569 0.5020);stop-opacity:1;"/>
<stop offset="1" stop-color="#1469CD" style="stop-color:#1469CD;stop-color:color(display-p3 0.0784 0.4118 0.8039);stop-opacity:1;"/>
</linearGradient>
<linearGradient id="paint1_linear_1256_5991" x1="13.0603" y1="4.042" x2="5.10172" y2="10.993" gradientUnits="userSpaceOnUse">
<stop stop-color="#102880" style="stop-color:#102880;stop-color:color(display-p3 0.0627 0.1569 0.5020);stop-opacity:1;"/>
<stop offset="1" stop-color="#1469CD" style="stop-color:#1469CD;stop-color:color(display-p3 0.0784 0.4118 0.8039);stop-opacity:1;"/>
</linearGradient>
<clipPath id="clip0_1256_5991">
<rect width="12.0878" height="12.0878" fill="white" style="fill:white;fill-opacity:1;" transform="translate(0.837891 0.493408)"/>
</clipPath>
</defs>
</svg>
