<svg width="13" height="13" viewBox="0 0 13 13" fill="none" xmlns="http://www.w3.org/2000/svg">
<path d="M10.1858 6.01071C10.1541 5.23555 9.81278 4.50343 9.23516 3.97144C8.65754 3.43945 7.88961 3.14997 7.09615 3.16512C6.30268 3.18026 5.5469 3.49883 4.99097 4.05246C4.43504 4.60609 4.12325 5.35067 4.1225 6.12645V6.5102C3.54968 6.59928 3.03228 6.8962 2.67351 7.34172C2.31475 7.78724 2.141 8.3486 2.18693 8.91381C2.23286 9.47901 2.4951 10.0065 2.92132 10.3911C3.34755 10.7756 3.90642 10.989 4.48645 10.9885H10.0669C10.7318 10.9878 11.37 10.733 11.8454 10.2786C12.3207 9.82416 12.5955 9.20608 12.611 8.55633C12.6265 7.90657 12.3815 7.27663 11.9284 6.80101C11.4753 6.32538 10.8499 6.04176 10.1858 6.01071ZM8.62569 8.03808C8.59197 8.07118 8.55189 8.09745 8.50776 8.11537C8.46362 8.13329 8.4163 8.14252 8.36851 8.14252C8.32072 8.14252 8.2734 8.13329 8.22926 8.11537C8.18513 8.09745 8.14505 8.07118 8.11132 8.03808L7.76194 7.69702V8.73537C7.76194 8.82973 7.72359 8.92022 7.65534 8.98694C7.58709 9.05365 7.49452 9.09114 7.39799 9.09114C7.30147 9.09114 7.2089 9.05365 7.14065 8.98694C7.07239 8.92022 7.03405 8.82973 7.03405 8.73537V7.69702L6.68466 8.03808C6.61567 8.10092 6.52442 8.13513 6.43014 8.13351C6.33585 8.13188 6.24589 8.09454 6.17921 8.02936C6.11253 7.96418 6.07433 7.87624 6.07267 7.78408C6.07101 7.69191 6.106 7.60271 6.17029 7.53527L7.14081 6.58657C7.20911 6.52006 7.30159 6.48272 7.39799 6.48272C7.4944 6.48272 7.58688 6.52006 7.65518 6.58657L8.62569 7.53527C8.6595 7.56827 8.68632 7.60746 8.70462 7.65059C8.72291 7.69373 8.73233 7.73997 8.73233 7.78667C8.73233 7.83337 8.72291 7.87962 8.70462 7.92275C8.68632 7.96589 8.6595 8.00508 8.62569 8.03808Z" fill="url(#paint0_linear_1256_6015)" style=""/>
<defs>
<linearGradient id="paint0_linear_1256_6015" x1="1.38773" y1="7.30423" x2="21.8121" y2="6.94397" gradientUnits="userSpaceOnUse">
<stop stop-color="#1354B4" style="stop-color:#1354B4;stop-color:color(display-p3 0.0734 0.3305 0.7077);stop-opacity:1;"/>
<stop offset="1" stop-color="#120086" style="stop-color:#120086;stop-color:color(display-p3 0.0706 0.0000 0.5255);stop-opacity:1;"/>
</linearGradient>
</defs>
</svg>
