<svg width="14" height="13" viewBox="0 0 14 13" fill="none" xmlns="http://www.w3.org/2000/svg">
<path d="M10.5976 3.35706H3.03807C2.65353 3.35706 2.3418 3.66879 2.3418 4.05333V4.84473C2.3418 4.89965 2.38633 4.9442 2.44127 4.9442H11.1944C11.2494 4.9442 11.2939 4.89966 11.2939 4.84473V4.05333C11.2939 3.66879 10.9822 3.35706 10.5976 3.35706ZM3.59727 4.37508C3.47331 4.37508 3.37284 4.27459 3.37284 4.15064C3.37284 4.0267 3.47333 3.92621 3.59727 3.92621C3.72122 3.92621 3.82171 4.0267 3.82171 4.15064C3.82172 4.27459 3.72124 4.37508 3.59727 4.37508ZM4.3168 4.37508C4.19283 4.37508 4.09237 4.27459 4.09237 4.15064C4.09237 4.0267 4.19285 3.92621 4.3168 3.92621C4.44075 3.92621 4.54123 4.0267 4.54123 4.15064C4.54125 4.27459 4.44075 4.37508 4.3168 4.37508ZM5.03632 4.37508C4.91237 4.37508 4.81189 4.27459 4.81189 4.15064C4.81189 4.0267 4.91237 3.92621 5.03632 3.92621C5.16029 3.92621 5.26075 4.0267 5.26075 4.15064C5.26075 4.27459 5.16027 4.37508 5.03632 4.37508Z" fill="url(#paint0_linear_1256_6084)" style=""/>
<path d="M11.1944 5.34241H2.44127C2.38635 5.34241 2.3418 5.38694 2.3418 5.44188V10.4026C2.3418 10.7871 2.65353 11.0988 3.03807 11.0988H10.5976C10.9822 11.0988 11.2939 10.7871 11.2939 10.4026V5.44188C11.2939 5.38694 11.2494 5.34241 11.1944 5.34241ZM5.4576 7.74623L5.1104 8.81765C5.05881 8.97701 4.84399 9.00561 4.75332 8.86313L4.48663 8.44392L4.21992 8.86317C4.12964 9.00496 3.91455 8.97739 3.86283 8.81769L3.51567 7.74627C3.43463 7.49628 3.81302 7.37322 3.89414 7.62363L4.11104 8.29305L4.31876 7.96656C4.39677 7.84394 4.5763 7.84371 4.65446 7.96656L4.86218 8.29305L5.07909 7.62362C5.16029 7.37308 5.53862 7.49629 5.4576 7.74623ZM7.78881 7.74623L7.44165 8.81765C7.39006 8.97697 7.17526 9.00563 7.08457 8.86313L6.81784 8.44396L6.55115 8.86317C6.46088 9.00496 6.24578 8.97739 6.19406 8.81769L5.84691 7.74627C5.76586 7.49628 6.14425 7.37322 6.22538 7.62363L6.44227 8.29305L6.64999 7.96656C6.728 7.84394 6.90754 7.84371 6.98569 7.96656L7.19341 8.29305L7.4103 7.62363C7.49133 7.37355 7.86997 7.49586 7.78881 7.74623ZM10.12 7.74623L9.77285 8.81765C9.72115 8.97725 9.50607 9.00503 9.41576 8.86313L9.14907 8.44392L8.88238 8.86313C8.79171 9.00559 8.57691 8.97702 8.52529 8.81765L8.1781 7.74623C8.09706 7.49621 8.47544 7.37318 8.55657 7.6236L8.77349 8.29303L8.9812 7.96654C9.05922 7.84392 9.23875 7.84369 9.31691 7.96654L9.52462 8.29303L9.74152 7.62362C9.82254 7.37355 10.2012 7.49586 10.12 7.74623Z" fill="url(#paint1_linear_1256_6084)" style=""/>
<defs>
<linearGradient id="paint0_linear_1256_6084" x1="1.66219" y1="4.19681" x2="19.0975" y2="2.89585" gradientUnits="userSpaceOnUse">
<stop stop-color="#1354B4" style="stop-color:#1354B4;stop-color:color(display-p3 0.0734 0.3305 0.7077);stop-opacity:1;"/>
<stop offset="1" stop-color="#120086" style="stop-color:#120086;stop-color:color(display-p3 0.0706 0.0000 0.5255);stop-opacity:1;"/>
</linearGradient>
<linearGradient id="paint1_linear_1256_6084" x1="1.66219" y1="8.38814" x2="19.1871" y2="8.0276" gradientUnits="userSpaceOnUse">
<stop stop-color="#1354B4" style="stop-color:#1354B4;stop-color:color(display-p3 0.0734 0.3305 0.7077);stop-opacity:1;"/>
<stop offset="1" stop-color="#120086" style="stop-color:#120086;stop-color:color(display-p3 0.0706 0.0000 0.5255);stop-opacity:1;"/>
</linearGradient>
</defs>
</svg>
