<svg width="13" height="13" viewBox="0 0 13 13" fill="none" xmlns="http://www.w3.org/2000/svg">
<g clip-path="url(#clip0_1256_6077)">
<path d="M6.88354 1.60141L1.2622 0.747216C1.00134 0.706296 0.735361 0.777906 0.535878 0.946699C0.336394 1.12061 0.21875 1.37124 0.21875 1.6321V12.4093C0.21875 12.6906 0.448923 12.9208 0.730246 12.9208H2.39261V10.2355C2.39261 9.73932 2.79157 9.34035 3.28773 9.34035H4.56647C5.06262 9.34035 5.46158 9.73932 5.46158 10.2355V12.9208H7.63544V2.4863C7.63544 2.04642 7.31831 1.67302 6.88354 1.60141ZM3.03198 8.18948H2.26473C2.05297 8.18948 1.88111 8.01762 1.88111 7.80586C1.88111 7.5941 2.05297 7.42224 2.26473 7.42224H3.03198C3.24374 7.42224 3.4156 7.5941 3.4156 7.80586C3.4156 8.01762 3.24374 8.18948 3.03198 8.18948ZM3.03198 6.655H2.26473C2.05297 6.655 1.88111 6.48313 1.88111 6.27137C1.88111 6.05961 2.05297 5.88775 2.26473 5.88775H3.03198C3.24374 5.88775 3.4156 6.05961 3.4156 6.27137C3.4156 6.48313 3.24374 6.655 3.03198 6.655ZM3.03198 5.12051H2.26473C2.05297 5.12051 1.88111 4.94864 1.88111 4.73689C1.88111 4.52513 2.05297 4.35326 2.26473 4.35326H3.03198C3.24374 4.35326 3.4156 4.52513 3.4156 4.73689C3.4156 4.94864 3.24374 5.12051 3.03198 5.12051ZM3.03198 3.58602H2.26473C2.05297 3.58602 1.88111 3.41416 1.88111 3.2024C1.88111 2.99064 2.05297 2.81877 2.26473 2.81877H3.03198C3.24374 2.81877 3.4156 2.99064 3.4156 3.2024C3.4156 3.41416 3.24374 3.58602 3.03198 3.58602ZM5.58946 8.18948H4.82221C4.61045 8.18948 4.43859 8.01762 4.43859 7.80586C4.43859 7.5941 4.61045 7.42224 4.82221 7.42224H5.58946C5.80122 7.42224 5.97308 7.5941 5.97308 7.80586C5.97308 8.01762 5.80122 8.18948 5.58946 8.18948ZM5.58946 6.655H4.82221C4.61045 6.655 4.43859 6.48313 4.43859 6.27137C4.43859 6.05961 4.61045 5.88775 4.82221 5.88775H5.58946C5.80122 5.88775 5.97308 6.05961 5.97308 6.27137C5.97308 6.48313 5.80122 6.655 5.58946 6.655ZM5.58946 5.12051H4.82221C4.61045 5.12051 4.43859 4.94864 4.43859 4.73689C4.43859 4.52513 4.61045 4.35326 4.82221 4.35326H5.58946C5.80122 4.35326 5.97308 4.52513 5.97308 4.73689C5.97308 4.94864 5.80122 5.12051 5.58946 5.12051ZM5.58946 3.58602H4.82221C4.61045 3.58602 4.43859 3.41416 4.43859 3.2024C4.43859 2.99064 4.61045 2.81877 4.82221 2.81877H5.58946C5.80122 2.81877 5.97308 2.99064 5.97308 3.2024C5.97308 3.41416 5.80122 3.58602 5.58946 3.58602Z" fill="url(#paint0_linear_1256_6077)" style=""/>
<path d="M11.7883 6.1905L8.14648 5.42786V12.9208H11.5991C12.0927 12.9208 12.4942 12.5192 12.4942 12.0256V7.06516C12.4942 6.64266 12.2062 6.28308 11.7883 6.1905ZM10.5761 11.3863H9.80885C9.59709 11.3863 9.42522 11.2144 9.42522 11.0027C9.42522 10.7909 9.59709 10.619 9.80885 10.619H10.5761C10.7879 10.619 10.9597 10.7909 10.9597 11.0027C10.9597 11.2144 10.7879 11.3863 10.5761 11.3863ZM10.5761 9.85179H9.80885C9.59709 9.85179 9.42522 9.67992 9.42522 9.46816C9.42522 9.2564 9.59709 9.08454 9.80885 9.08454H10.5761C10.7879 9.08454 10.9597 9.2564 10.9597 9.46816C10.9597 9.67992 10.7879 9.85179 10.5761 9.85179ZM10.5761 8.3173H9.80885C9.59709 8.3173 9.42522 8.14544 9.42522 7.93368C9.42522 7.72192 9.59709 7.55005 9.80885 7.55005H10.5761C10.7879 7.55005 10.9597 7.72192 10.9597 7.93368C10.9597 8.14544 10.7879 8.3173 10.5761 8.3173Z" fill="url(#paint1_linear_1256_6077)" style=""/>
</g>
<defs>
<linearGradient id="paint0_linear_1256_6077" x1="7.86883" y1="-1.18124" x2="-5.34475" y2="10.9251" gradientUnits="userSpaceOnUse">
<stop stop-color="#102880" style="stop-color:#102880;stop-color:color(display-p3 0.0627 0.1569 0.5020);stop-opacity:1;"/>
<stop offset="1" stop-color="#1469CD" style="stop-color:#1469CD;stop-color:color(display-p3 0.0784 0.4118 0.8039);stop-opacity:1;"/>
</linearGradient>
<linearGradient id="paint1_linear_1256_6077" x1="12.631" y1="4.2489" x2="4.54853" y2="11.3081" gradientUnits="userSpaceOnUse">
<stop stop-color="#102880" style="stop-color:#102880;stop-color:color(display-p3 0.0627 0.1569 0.5020);stop-opacity:1;"/>
<stop offset="1" stop-color="#1469CD" style="stop-color:#1469CD;stop-color:color(display-p3 0.0784 0.4118 0.8039);stop-opacity:1;"/>
</linearGradient>
<clipPath id="clip0_1256_6077">
<rect width="12.2759" height="12.2759" fill="white" style="fill:white;fill-opacity:1;" transform="translate(0.21875 0.644775)"/>
</clipPath>
</defs>
</svg>
