<svg width="13" height="13" viewBox="0 0 13 13" fill="none" xmlns="http://www.w3.org/2000/svg">
<path d="M9.60195 3.16431H2.15825C1.77961 3.16431 1.47266 3.47126 1.47266 3.84991V4.62918C1.47266 4.68326 1.51651 4.72712 1.5706 4.72712H10.1896C10.2437 4.72712 10.2875 4.68327 10.2875 4.62918V3.84991C10.2875 3.47126 9.98059 3.16431 9.60195 3.16431ZM2.70889 4.16672C2.58683 4.16672 2.4879 4.06778 2.4879 3.94573C2.4879 3.82368 2.58684 3.72474 2.70889 3.72474C2.83094 3.72474 2.92988 3.82368 2.92988 3.94573C2.9299 4.06778 2.83096 4.16672 2.70889 4.16672ZM3.41739 4.16672C3.29532 4.16672 3.1964 4.06778 3.1964 3.94573C3.1964 3.82368 3.29534 3.72474 3.41739 3.72474C3.53944 3.72474 3.63838 3.82368 3.63838 3.94573C3.6384 4.06778 3.53944 4.16672 3.41739 4.16672ZM4.12589 4.16672C4.00384 4.16672 3.90489 4.06778 3.90489 3.94573C3.90489 3.82368 4.00384 3.72474 4.12589 3.72474C4.24795 3.72474 4.34688 3.82368 4.34688 3.94573C4.34688 4.06778 4.24793 4.16672 4.12589 4.16672Z" fill="url(#paint0_linear_1256_5998)" style=""/>
<path d="M10.1896 5.1189H1.5706C1.51652 5.1189 1.47266 5.16275 1.47266 5.21684V10.1015C1.47266 10.4802 1.77961 10.7871 2.15825 10.7871H9.60195C9.98059 10.7871 10.2875 10.4802 10.2875 10.1015V5.21684C10.2875 5.16275 10.2437 5.1189 10.1896 5.1189ZM4.5407 7.48588L4.19883 8.54088C4.14803 8.69779 3.9365 8.72596 3.84722 8.58566L3.58461 8.17288L3.32199 8.5857C3.2331 8.72532 3.0213 8.69817 2.97038 8.54092L2.62854 7.48592C2.54874 7.23976 2.92133 7.11859 3.00121 7.36516L3.21478 8.02432L3.41932 7.70283C3.49614 7.58209 3.67292 7.58187 3.74988 7.70283L3.95441 8.02432L4.168 7.36514C4.24795 7.11845 4.62048 7.23977 4.5407 7.48588ZM6.83619 7.48588L6.49435 8.54088C6.44355 8.69776 6.23204 8.72598 6.14274 8.58566L5.8801 8.17291L5.6175 8.5857C5.52861 8.72532 5.31681 8.69817 5.26588 8.54092L4.92405 7.48592C4.84425 7.23976 5.21683 7.11859 5.29672 7.36516L5.51029 8.02432L5.71482 7.70283C5.79164 7.58209 5.96842 7.58187 6.04538 7.70283L6.24991 8.02432L6.46349 7.36516C6.54327 7.11891 6.91611 7.23934 6.83619 7.48588ZM9.13166 7.48588L8.78982 8.54088C8.73891 8.69803 8.52713 8.72539 8.43821 8.58566L8.17561 8.17288L7.913 8.58566C7.82372 8.72594 7.61221 8.69781 7.56139 8.54088L7.21952 7.48588C7.13972 7.23969 7.5123 7.11855 7.59219 7.36513L7.80578 8.0243L8.01031 7.70281C8.08713 7.58207 8.26391 7.58185 8.34087 7.70281L8.5454 8.0243L8.75897 7.36514C8.83875 7.11891 9.21158 7.23934 9.13166 7.48588Z" fill="url(#paint1_linear_1256_5998)" style=""/>
<defs>
<linearGradient id="paint0_linear_1256_5998" x1="0.803463" y1="3.99119" x2="17.9715" y2="2.71017" gradientUnits="userSpaceOnUse">
<stop stop-color="#1354B4" style="stop-color:#1354B4;stop-color:color(display-p3 0.0734 0.3305 0.7077);stop-opacity:1;"/>
<stop offset="1" stop-color="#120086" style="stop-color:#120086;stop-color:color(display-p3 0.0706 0.0000 0.5255);stop-opacity:1;"/>
</linearGradient>
<linearGradient id="paint1_linear_1256_5998" x1="0.803463" y1="8.11795" x2="18.0598" y2="7.76294" gradientUnits="userSpaceOnUse">
<stop stop-color="#1354B4" style="stop-color:#1354B4;stop-color:color(display-p3 0.0734 0.3305 0.7077);stop-opacity:1;"/>
<stop offset="1" stop-color="#120086" style="stop-color:#120086;stop-color:color(display-p3 0.0706 0.0000 0.5255);stop-opacity:1;"/>
</linearGradient>
</defs>
</svg>
