<svg width="14" height="13" viewBox="0 0 14 13" fill="none" xmlns="http://www.w3.org/2000/svg">
<path d="M10.3807 6.24824C10.3485 5.46102 10.0019 4.71751 9.41528 4.17724C8.82867 3.63697 8.0488 3.34298 7.24298 3.35836C6.43717 3.37374 5.66962 3.69727 5.10504 4.25952C4.54046 4.82176 4.22381 5.57794 4.22305 6.36579V6.75551C3.64132 6.84598 3.11586 7.14752 2.75151 7.59997C2.38716 8.05242 2.21071 8.62252 2.25736 9.19653C2.304 9.77053 2.57032 10.3062 3.00318 10.6968C3.43604 11.0873 4.00361 11.304 4.59266 11.3035H10.26C10.9352 11.3028 11.5834 11.0441 12.0661 10.5826C12.5488 10.121 12.8279 9.49335 12.8436 8.83348C12.8594 8.17361 12.6106 7.53387 12.1505 7.05084C11.6903 6.56781 11.0552 6.27978 10.3807 6.24824ZM8.79633 8.30717C8.76208 8.34079 8.72138 8.36746 8.67656 8.38566C8.63174 8.40386 8.58368 8.41323 8.53514 8.41323C8.48661 8.41323 8.43855 8.40386 8.39373 8.38566C8.34891 8.36746 8.3082 8.34079 8.27395 8.30717L7.91913 7.9608V9.01532C7.91913 9.11114 7.88019 9.20304 7.81088 9.27079C7.74156 9.33855 7.64755 9.37662 7.54952 9.37662C7.4515 9.37662 7.35749 9.33855 7.28817 9.27079C7.21886 9.20304 7.17992 9.11114 7.17992 9.01532V7.9608L6.82509 8.30717C6.75503 8.37099 6.66236 8.40573 6.5666 8.40408C6.47085 8.40243 6.37949 8.36451 6.31177 8.29832C6.24405 8.23212 6.20526 8.14281 6.20357 8.04921C6.20188 7.95561 6.23743 7.86502 6.30271 7.79653L7.28833 6.83307C7.3577 6.76553 7.45162 6.7276 7.54952 6.7276C7.64743 6.7276 7.74135 6.76553 7.81071 6.83307L8.79633 7.79653C8.83066 7.83004 8.8579 7.86984 8.87648 7.91365C8.89507 7.95746 8.90463 8.00442 8.90463 8.05185C8.90463 8.09928 8.89507 8.14624 8.87648 8.19005C8.8579 8.23386 8.83066 8.27366 8.79633 8.30717Z" fill="url(#paint0_linear_1256_6101)" style=""/>
<defs>
<linearGradient id="paint0_linear_1256_6101" x1="1.44572" y1="7.56189" x2="22.1879" y2="7.19603" gradientUnits="userSpaceOnUse">
<stop stop-color="#1354B4" style="stop-color:#1354B4;stop-color:color(display-p3 0.0734 0.3305 0.7077);stop-opacity:1;"/>
<stop offset="1" stop-color="#120086" style="stop-color:#120086;stop-color:color(display-p3 0.0706 0.0000 0.5255);stop-opacity:1;"/>
</linearGradient>
</defs>
</svg>
