<svg width="19" height="19" viewBox="0 0 19 19" fill="none" xmlns="http://www.w3.org/2000/svg">
<path d="M17.728 13.9561V7.0345C17.7279 6.95881 17.7128 6.88388 17.6835 6.81406C17.6543 6.74425 17.6115 6.68092 17.5576 6.62776C17.5037 6.57459 17.4398 6.53265 17.3696 6.50434C17.2994 6.47603 17.2243 6.46193 17.1486 6.46285H10.3583C10.173 6.46258 9.99168 6.40935 9.83565 6.30944C9.67962 6.20952 9.5554 6.06709 9.47764 5.89892L9.13001 5.13414L8.65879 4.11444C8.63601 4.06649 8.61021 4.02005 8.58153 3.97538C8.40001 3.64246 8.1319 3.36476 7.80554 3.17167C7.47919 2.97858 7.10672 2.87726 6.72752 2.87843H3.24353C2.96449 2.87822 2.68815 2.93303 2.43032 3.03972C2.17249 3.14641 1.93821 3.30289 1.74091 3.50019C1.5436 3.6975 1.38713 3.93177 1.28044 4.18961C1.17375 4.44744 1.11894 4.72378 1.11914 5.00282V13.9561C1.11894 14.2352 1.17375 14.5115 1.28044 14.7694C1.38713 15.0272 1.5436 15.2615 1.74091 15.4588C1.93821 15.6561 2.17249 15.8125 2.43032 15.9192C2.68815 16.0259 2.96449 16.0807 3.24353 16.0805H15.6036C15.8826 16.0807 16.159 16.0259 16.4168 15.9192C16.6746 15.8125 16.9089 15.6561 17.1062 15.4588C17.3035 15.2615 17.46 15.0272 17.5667 14.7694C17.6734 14.5115 17.7282 14.2352 17.728 13.9561Z" fill="url(#paint0_linear_1256_6052)" style=""/>
<path d="M10.1811 5.58215C10.1981 5.61462 10.2237 5.64185 10.255 5.66091C10.2863 5.67996 10.3222 5.69012 10.3588 5.6903H17.1491C17.3407 5.68835 17.5305 5.72788 17.7053 5.80618C17.6346 5.299 17.383 4.83446 16.9969 4.49805C16.6108 4.16164 16.1162 3.97602 15.6041 3.97534H9.44727L9.83352 4.80965L10.1811 5.58215Z" fill="url(#paint1_linear_1256_6052)" style=""/>
<defs>
<linearGradient id="paint0_linear_1256_6052" x1="18.2506" y1="0.801162" x2="6.38176" y2="23.2766" gradientUnits="userSpaceOnUse">
<stop stop-color="#102880" style="stop-color:#102880;stop-color:color(display-p3 0.0627 0.1569 0.5020);stop-opacity:1;"/>
<stop offset="1" stop-color="#1469CD" style="stop-color:#1469CD;stop-color:color(display-p3 0.0784 0.4118 0.8039);stop-opacity:1;"/>
</linearGradient>
<linearGradient id="paint1_linear_1256_6052" x1="17.9652" y1="3.68727" x2="17.3906" y2="7.58867" gradientUnits="userSpaceOnUse">
<stop stop-color="#102880" style="stop-color:#102880;stop-color:color(display-p3 0.0627 0.1569 0.5020);stop-opacity:1;"/>
<stop offset="1" stop-color="#1469CD" style="stop-color:#1469CD;stop-color:color(display-p3 0.0784 0.4118 0.8039);stop-opacity:1;"/>
</linearGradient>
</defs>
</svg>
