<svg width="20" height="19" viewBox="0 0 20 19" fill="none" xmlns="http://www.w3.org/2000/svg">
<path d="M18.1883 14.1451V7.32957C18.1882 7.25504 18.1733 7.18126 18.1445 7.11251C18.1157 7.04377 18.0736 6.98141 18.0205 6.92906C17.9675 6.87671 17.9045 6.83541 17.8354 6.80753C17.7663 6.77966 17.6923 6.76577 17.6178 6.76668H10.9315C10.7491 6.76641 10.5705 6.714 10.4169 6.61562C10.2633 6.51724 10.141 6.37699 10.0644 6.21139L9.72208 5.45834L9.25808 4.45426C9.23566 4.40705 9.21025 4.36132 9.18201 4.31734C9.00327 3.98951 8.73927 3.71608 8.41791 3.52594C8.09656 3.33581 7.7298 3.23604 7.35642 3.23719H3.92581C3.65106 3.23699 3.37895 3.29096 3.12507 3.39602C2.87119 3.50107 2.64051 3.65514 2.44622 3.84943C2.25194 4.04371 2.09786 4.27439 1.99281 4.52828C1.88776 4.78216 1.83378 5.05426 1.83398 5.32902V14.1451C1.83378 14.4199 1.88776 14.692 1.99281 14.9459C2.09786 15.1998 2.25194 15.4304 2.44622 15.6247C2.64051 15.819 2.87119 15.9731 3.12507 16.0781C3.37895 16.1832 3.65106 16.2372 3.92581 16.237H16.0965C16.3712 16.2372 16.6433 16.1832 16.8972 16.0781C17.1511 15.9731 17.3818 15.819 17.5761 15.6247C17.7703 15.4304 17.9244 15.1998 18.0295 14.9459C18.1345 14.692 18.1885 14.4199 18.1883 14.1451Z" fill="url(#paint0_linear_1256_5951)" style=""/>
<path d="M10.7558 5.89944C10.7726 5.93142 10.7977 5.95823 10.8285 5.97699C10.8593 5.99576 10.8947 6.00576 10.9308 6.00594H17.617C17.8057 6.00401 17.9925 6.04294 18.1647 6.12004C18.095 5.62064 17.8473 5.16321 17.4671 4.83196C17.087 4.5007 16.5999 4.31792 16.0957 4.31726H10.0332L10.4135 5.13878L10.7558 5.89944Z" fill="url(#paint1_linear_1256_5951)" style=""/>
<defs>
<linearGradient id="paint0_linear_1256_5951" x1="18.7029" y1="1.19176" x2="7.01595" y2="23.3227" gradientUnits="userSpaceOnUse">
<stop stop-color="#102880" style="stop-color:#102880;stop-color:color(display-p3 0.0627 0.1569 0.5020);stop-opacity:1;"/>
<stop offset="1" stop-color="#1469CD" style="stop-color:#1469CD;stop-color:color(display-p3 0.0784 0.4118 0.8039);stop-opacity:1;"/>
</linearGradient>
<linearGradient id="paint1_linear_1256_5951" x1="18.4206" y1="4.03361" x2="17.8548" y2="7.87521" gradientUnits="userSpaceOnUse">
<stop stop-color="#102880" style="stop-color:#102880;stop-color:color(display-p3 0.0627 0.1569 0.5020);stop-opacity:1;"/>
<stop offset="1" stop-color="#1469CD" style="stop-color:#1469CD;stop-color:color(display-p3 0.0784 0.4118 0.8039);stop-opacity:1;"/>
</linearGradient>
</defs>
</svg>
