<svg width="15" height="15" viewBox="0 0 15 15" fill="none" xmlns="http://www.w3.org/2000/svg">
<path d="M2.74321 5.4563L2.90844 5.41196L2.92695 5.24189C3.14837 3.20786 5.14201 1.65625 7.5 1.65625C9.85799 1.65625 11.8516 3.20786 12.073 5.24189L12.0915 5.41197L12.2568 5.4563C12.883 5.62434 13.3438 6.19618 13.3438 6.875V8.75C13.3438 9.43073 12.8804 10.0039 12.2515 10.1701L12.0907 10.2126L12.0678 10.3774C11.8842 11.7002 10.7484 12.7188 9.375 12.7188H8.65912H8.49061L8.42739 12.8749C8.27885 13.2419 7.91926 13.5 7.5 13.5C6.9477 13.5 6.5 13.0523 6.5 12.5C6.5 11.9477 6.9477 11.5 7.5 11.5C7.91926 11.5 8.27885 11.7581 8.42739 12.1251L8.49061 12.2812H8.65912H9.375C10.454 12.2812 11.3575 11.5324 11.5952 10.5262L11.6678 10.2188H11.3519H10.3125C10.1917 10.2188 10.0938 10.1208 10.0938 10V5.625C10.0938 5.50419 10.1917 5.40625 10.3125 5.40625H11.3657H11.6629L11.6121 5.11345C11.319 3.42693 9.62248 2.09375 7.5 2.09375C5.37754 2.09375 3.68099 3.42693 3.38796 5.11345L3.33709 5.40625H3.63427H4.6875C4.80831 5.40625 4.90625 5.50419 4.90625 5.625V10C4.90625 10.1208 4.80831 10.2188 4.6875 10.2188H3.125C2.31383 10.2188 1.65625 9.56118 1.65625 8.75V6.875C1.65625 6.19618 2.11697 5.62433 2.74321 5.4563Z" stroke="#102880" style="stroke:#102880;stroke:color(display-p3 0.0627 0.1569 0.5020);stroke-opacity:1;" stroke-width="0.5"/>
</svg>
