<svg width="15" height="15" viewBox="0 0 15 15" fill="none" xmlns="http://www.w3.org/2000/svg">
<path d="M7.5 13.75C4.0625 13.75 1.25 10.9375 1.25 7.5C1.25 4.0625 4.0625 1.25 7.5 1.25C10.9375 1.25 13.75 4.0625 13.75 7.5C13.75 10.9375 10.9375 13.75 7.5 13.75ZM7.5 2.5C4.75 2.5 2.5 4.75 2.5 7.5C2.5 10.25 4.75 12.5 7.5 12.5C10.25 12.5 12.5 10.25 12.5 7.5C12.5 4.75 10.25 2.5 7.5 2.5Z" fill="#102880" style="fill:#102880;fill:color(display-p3 0.0627 0.1569 0.5020);fill-opacity:1;"/>
<path d="M7.5 10.625C7.125 10.625 6.875 10.375 6.875 10V6.875C6.875 6.5 7.125 6.25 7.5 6.25C7.875 6.25 8.125 6.5 8.125 6.875V10C8.125 10.375 7.875 10.625 7.5 10.625Z" fill="#102880" style="fill:#102880;fill:color(display-p3 0.0627 0.1569 0.5020);fill-opacity:1;"/>
<path d="M7.5 5.625C7.84518 5.625 8.125 5.34518 8.125 5C8.125 4.65482 7.84518 4.375 7.5 4.375C7.15482 4.375 6.875 4.65482 6.875 5C6.875 5.34518 7.15482 5.625 7.5 5.625Z" fill="#102880" style="fill:#102880;fill:color(display-p3 0.0627 0.1569 0.5020);fill-opacity:1;"/>
</svg>
