<svg width="15" height="16" viewBox="0 0 15 16" fill="none" xmlns="http://www.w3.org/2000/svg">
<g clip-path="url(#clip0_2497_1223)">
<path d="M10.8604 0.5H4.13934C1.85691 0.5 0 2.357 0 4.63943V11.3605C0 13.643 1.85691 15.4999 4.13934 15.4999H10.8604C13.143 15.4999 14.9999 13.6429 14.9999 11.3605V4.63943C15 2.357 13.143 0.5 10.8604 0.5ZM13.6691 11.3605C13.6691 12.9092 12.4092 14.169 10.8605 14.169H4.13934C2.59075 14.1691 1.33086 12.9092 1.33086 11.3605V4.63943C1.33086 3.09084 2.59075 1.83086 4.13934 1.83086H10.8604C12.4091 1.83086 13.669 3.09084 13.669 4.63943V7.99996L13.6691 11.3605Z" fill="white" style="fill:white;fill-opacity:1;"/>
<path d="M7.49986 4.13477C5.36862 4.13477 3.63477 5.86862 3.63477 7.99986C3.63477 10.131 5.36862 11.8648 7.49986 11.8648C9.63111 11.8648 11.365 10.131 11.365 7.99986C11.365 5.86862 9.63111 4.13477 7.49986 4.13477ZM7.49986 10.5338C6.10254 10.5338 4.96563 9.39709 4.96563 7.99977C4.96563 6.60237 6.10246 5.46554 7.49986 5.46554C8.89727 5.46554 10.0341 6.60237 10.0341 7.99977C10.0341 9.39709 8.89718 10.5338 7.49986 10.5338Z" fill="white" style="fill:white;fill-opacity:1;"/>
<path d="M11.5267 3.00684C11.2703 3.00684 11.0184 3.11064 10.8374 3.29253C10.6554 3.47353 10.5508 3.7255 10.5508 3.9828C10.5508 4.23931 10.6555 4.49119 10.8374 4.67308C11.0184 4.85408 11.2703 4.95877 11.5267 4.95877C11.784 4.95877 12.0351 4.85408 12.217 4.67308C12.3989 4.49119 12.5027 4.23922 12.5027 3.9828C12.5027 3.7255 12.3989 3.47353 12.217 3.29253C12.036 3.11064 11.784 3.00684 11.5267 3.00684Z" fill="white" style="fill:white;fill-opacity:1;"/>
</g>
<defs>
<clipPath id="clip0_2497_1223">
<rect width="15" height="15" fill="white" style="fill:white;fill-opacity:1;" transform="translate(0 0.5)"/>
</clipPath>
</defs>
</svg>
