<svg width="15" height="16" viewBox="0 0 15 16" fill="none" xmlns="http://www.w3.org/2000/svg">
<g clip-path="url(#clip0_2497_1232)">
<path d="M0.228516 15.4398H4.11243V5.22656H0.228516V15.4398ZM1.10742 6.10547H3.23353V14.5609H1.10742V6.10547Z" fill="white" style="fill:white;fill-opacity:1;"/>
<path d="M2.17087 0.560547C0.973828 0.560547 0 1.5344 0 2.73142C0 3.92843 0.973828 4.90231 2.17087 4.90231C3.36791 4.90231 4.34177 3.92846 4.34177 2.73142C4.34177 1.53437 3.36788 0.560547 2.17087 0.560547ZM0.878906 2.73142C0.878906 2.01903 1.45846 1.43945 2.17087 1.43945C2.88328 1.43945 3.46286 2.019 3.46286 2.73142C3.46286 3.44383 2.88328 4.02341 2.17087 4.02341C1.45846 4.02341 0.878906 3.4438 0.878906 2.73142Z" fill="white" style="fill:white;fill-opacity:1;"/>
<path d="M14.9906 8.43293C14.8524 6.44499 13.1942 4.91309 11.1384 4.91309C10.2189 4.91309 9.35083 5.23277 8.66689 5.80002V5.2258H4.94531V15.4391H8.82926V9.85321C8.82926 9.22368 9.3414 8.71151 9.97096 8.71151C10.6005 8.71151 11.1126 9.22368 11.1126 9.85348L11.1164 15.4391H15V8.44236L14.9906 8.43293ZM7.95035 14.5602H5.82422V6.10474H7.78796V7.36002L8.49123 7.36406L8.62189 7.16121C9.17414 6.30384 10.1149 5.79202 11.1384 5.79202C12.7742 5.79202 14.084 7.04013 14.1202 8.63338L14.1211 14.5602H11.9947L11.9915 9.85321C11.9915 8.73905 11.0851 7.83261 9.97096 7.83261C8.8568 7.83261 7.95035 8.73905 7.95035 9.85321V14.5602Z" fill="white" style="fill:white;fill-opacity:1;"/>
</g>
<defs>
<clipPath id="clip0_2497_1232">
<rect width="15" height="15" fill="white" style="fill:white;fill-opacity:1;" transform="translate(0 0.5)"/>
</clipPath>
</defs>
</svg>
