<svg width="15" height="15" viewBox="0 0 15 15" fill="none" xmlns="http://www.w3.org/2000/svg">
<g clip-path="url(#clip0_2497_2043)">
<path d="M0.228516 14.9396H4.11243V4.72632H0.228516V14.9396ZM1.10742 5.60522H3.23353V14.0607H1.10742V5.60522Z" fill="#102880" style="fill:#102880;fill:color(display-p3 0.0627 0.1569 0.5020);fill-opacity:1;"/>
<path d="M2.17087 0.0605469C0.973828 0.0605469 0 1.0344 0 2.23142C0 3.42843 0.973828 4.40231 2.17087 4.40231C3.36791 4.40231 4.34177 3.42846 4.34177 2.23142C4.34177 1.03437 3.36788 0.0605469 2.17087 0.0605469ZM0.878906 2.23142C0.878906 1.51903 1.45846 0.939453 2.17087 0.939453C2.88328 0.939453 3.46286 1.519 3.46286 2.23142C3.46286 2.94383 2.88328 3.52341 2.17087 3.52341C1.45846 3.52341 0.878906 2.9438 0.878906 2.23142Z" fill="#102880" style="fill:#102880;fill:color(display-p3 0.0627 0.1569 0.5020);fill-opacity:1;"/>
<path d="M14.9906 7.9333C14.8524 5.94536 13.1942 4.41345 11.1384 4.41345C10.2189 4.41345 9.35083 4.73314 8.66689 5.30039V4.72617H4.94531V14.9394H8.82926V9.35358C8.82926 8.72405 9.3414 8.21188 9.97096 8.21188C10.6005 8.21188 11.1126 8.72405 11.1126 9.35384L11.1164 14.9395H15V7.94273L14.9906 7.9333ZM7.95035 14.0606H5.82422V5.6051H7.78796V6.86039L8.49123 6.86443L8.62189 6.66158C9.17414 5.8042 10.1149 5.29239 11.1384 5.29239C12.7742 5.29239 14.084 6.54049 14.1202 8.13374L14.1211 14.0606H11.9947L11.9915 9.35358C11.9915 8.23942 11.0851 7.33297 9.97096 7.33297C8.8568 7.33297 7.95035 8.23942 7.95035 9.35358V14.0606Z" fill="#102880" style="fill:#102880;fill:color(display-p3 0.0627 0.1569 0.5020);fill-opacity:1;"/>
</g>
<defs>
<clipPath id="clip0_2497_2043">
<rect width="15" height="15" fill="white" style="fill:white;fill-opacity:1;"/>
</clipPath>
</defs>
</svg>
