<svg width="18" height="19" viewBox="0 0 18 19" fill="none" xmlns="http://www.w3.org/2000/svg">
<path d="M18.0008 8.07294C18.0008 4.62359 14.6544 1.81738 10.5414 1.81738C6.42833 1.81738 3.08203 4.62362 3.08203 8.07294C3.08203 11.5223 6.42833 14.3285 10.5414 14.3285C10.8873 14.3285 11.2343 14.3085 11.5755 14.2689C13.1597 15.2754 14.3292 15.8262 15.0541 15.9067C15.0793 15.9095 15.1046 15.9109 15.1295 15.9109C15.3623 15.9109 15.5778 15.7949 15.7061 15.6003C15.8496 15.3826 15.8589 15.1065 15.7312 14.8811C15.7252 14.8704 15.1659 13.8498 15.3272 12.8749C17.0291 11.6839 18.0008 9.94353 18.0008 8.07294ZM8.51562 9.01771C7.9053 9.01771 7.41068 8.52297 7.41068 7.91274C7.41068 7.30247 7.9053 6.80777 8.51562 6.80777C9.12583 6.80777 9.62065 7.3025 9.62065 7.91274C9.62068 8.52297 9.12585 9.01771 8.51562 9.01771ZM12.5674 9.01771C11.957 9.01771 11.4623 8.52297 11.4623 7.91274C11.4623 7.30247 11.957 6.80777 12.5674 6.80777C13.1776 6.80777 13.6724 7.3025 13.6724 7.91274C13.6724 8.52297 13.1776 9.01771 12.5674 9.01771Z" fill="white" style="fill:white;fill-opacity:1;"/>
<path d="M4.65715 13.0776C3.917 12.4648 3.33356 11.7474 2.92326 10.9455C2.49065 10.1001 2.27132 9.20073 2.27132 8.27249C2.27132 7.34423 2.49068 6.4449 2.92326 5.59946C2.95638 5.53476 2.99106 5.47084 3.02638 5.40723C1.19941 6.45393 0 8.20087 0 10.1757C0 11.9499 0.955735 13.5949 2.62541 14.7014C2.93379 15.9137 2.21818 17.1963 2.21062 17.2095C2.16797 17.2847 2.17112 17.3775 2.21871 17.4497C2.26159 17.5147 2.334 17.5532 2.41085 17.5532C2.41935 17.5532 2.42782 17.5527 2.43641 17.5518C3.27176 17.459 4.74279 16.61 5.85721 15.8941C6.23253 15.945 6.61621 15.9708 6.999 15.9708C8.463 15.9708 9.82318 15.5964 10.948 14.9576C10.6967 14.9777 10.4436 14.9885 10.1912 14.9885C8.11076 14.9885 6.14541 14.3098 4.65715 13.0776Z" fill="white" style="fill:white;fill-opacity:1;"/>
</svg>
