<svg width="146" height="47" viewBox="0 0 146 47" fill="none" xmlns="http://www.w3.org/2000/svg">
<g clip-path="url(#clip0_540_267)">
<path d="M31.3154 9.95004C31.2916 9.73598 31.1011 9.64085 30.9582 9.64085C30.8153 9.64085 27.6957 9.40301 27.6957 9.40301C27.6957 9.40301 25.5287 7.23867 25.2667 7.02462C25.0286 6.78678 24.5761 6.85813 24.3856 6.9057C24.3618 6.9057 23.9094 7.0484 23.1711 7.28624C22.4329 5.16947 21.1708 3.24297 18.9085 3.24297H18.6942C18.075 2.43432 17.2653 2.05377 16.5985 2.05377C11.3595 2.05377 8.83527 8.59436 8.04941 11.9241C6.00143 12.5663 4.5488 12.9944 4.3821 13.0657C3.23904 13.4225 3.21523 13.4463 3.07235 14.5166C2.95328 15.3252 -0.0234375 38.3243 -0.0234375 38.3243L23.1473 42.653L35.721 39.9416C35.7448 39.894 31.3392 10.1641 31.3154 9.95004ZM21.8852 7.61922C21.3137 7.7857 20.6231 7.99976 19.9325 8.2376V7.80948C19.9325 6.52515 19.7658 5.47866 19.4562 4.64622C20.6469 4.78893 21.3851 6.09704 21.8852 7.61922ZM18.0036 4.90785C18.3131 5.7165 18.5275 6.85813 18.5275 8.42787V8.66571C17.2415 9.07004 15.8841 9.47436 14.4791 9.92625C15.265 6.92948 16.7652 5.45488 18.0036 4.90785ZM16.4795 3.43324C16.7176 3.43324 16.9557 3.52837 17.1463 3.67108C15.4555 4.45595 13.6695 6.43002 12.9312 10.4257C11.812 10.7825 10.7404 11.0917 9.71638 11.4246C10.5737 8.3803 12.7169 3.43324 16.4795 3.43324Z" fill="#95BF47" style="fill:#95BF47;fill:color(display-p3 0.5843 0.7490 0.2784);fill-opacity:1;"/>
<path d="M18.9071 16.5382L17.383 21.1285C17.383 21.1285 16.0019 20.3912 14.3587 20.3912C11.9059 20.3912 11.7868 21.9372 11.7868 22.3177C11.7868 24.4107 17.264 25.2193 17.264 30.1426C17.264 34.0194 14.8112 36.5167 11.5011 36.5167C7.50035 36.5167 5.5 34.0432 5.5 34.0432L6.57162 30.5232C6.57162 30.5232 8.66722 32.3307 10.4294 32.3307C11.5963 32.3307 12.0726 31.427 12.0726 30.761C12.0726 28.0258 7.59561 27.9069 7.59561 23.388C7.59561 19.6063 10.3104 15.9436 15.8113 15.9436C17.8593 15.9198 18.9071 16.5382 18.9071 16.5382Z" fill="white" style="fill:white;fill-opacity:1;"/>
<path d="M50.3891 25.1717C49.127 24.5058 48.484 23.9112 48.484 23.1263C48.484 22.1274 49.389 21.4852 50.794 21.4852C52.4371 21.4852 53.8897 22.1512 53.8897 22.1512L55.0328 18.6549C55.0328 18.6549 53.985 17.8463 50.8892 17.8463C46.5789 17.8463 43.5784 20.3198 43.5784 23.7922C43.5784 25.7663 44.9834 27.2647 46.8409 28.335C48.365 29.1674 48.8889 29.7858 48.8889 30.6896C48.8889 31.6172 48.1268 32.3783 46.7218 32.3783C44.65 32.3783 42.6735 31.308 42.6735 31.308L41.459 34.8042C41.459 34.8042 43.2688 36.0172 46.317 36.0172C50.7463 36.0172 53.9612 33.8291 53.9612 29.9047C53.9136 27.7642 52.318 26.2896 50.3891 25.1717ZM68.0589 17.7987C65.868 17.7987 64.1535 18.8452 62.8437 20.4149L62.7961 20.3911L64.7012 10.497H59.7717L54.9614 35.708H59.8908L61.534 27.0982C62.1769 23.8398 63.8677 21.8182 65.4394 21.8182C66.5586 21.8182 66.9873 22.5793 66.9873 23.6495C66.9873 24.3155 66.9397 25.1717 66.773 25.8377L64.9155 35.708H69.8449L71.7739 25.5285C71.9882 24.4582 72.1311 23.1739 72.1311 22.2939C72.1072 19.4636 70.6546 17.7987 68.0589 17.7987ZM83.2759 17.7987C77.3225 17.7987 73.3932 23.1501 73.3932 29.1199C73.3932 32.9253 75.7507 36.0172 80.1801 36.0172C86.0145 36.0172 89.9437 30.8085 89.9437 24.696C89.9675 21.1522 87.9196 17.7987 83.2759 17.7987ZM80.8469 32.2593C79.1561 32.2593 78.4655 30.8323 78.4655 29.0247C78.4655 26.1944 79.9181 21.6041 82.6091 21.6041C84.3475 21.6041 84.9428 23.1263 84.9428 24.5771C84.9428 27.5977 83.4426 32.2593 80.8469 32.2593ZM102.589 17.7987C99.2549 17.7987 97.3736 20.7479 97.3736 20.7479H97.326L97.6117 18.1079H93.23C93.0157 19.8917 92.6109 22.6268 92.2298 24.6485L88.8245 42.7005H93.7539L95.1351 35.3988H95.2542C95.2542 35.3988 96.2782 36.041 98.1356 36.041C103.946 36.041 107.733 30.095 107.733 24.1014C107.709 20.7717 106.208 17.7987 102.589 17.7987ZM97.8737 32.3069C96.5878 32.3069 95.8257 31.5696 95.8257 31.5696L96.6354 26.9793C97.2069 23.8874 98.8262 21.8657 100.541 21.8657C102.065 21.8657 102.517 23.269 102.517 24.5771C102.541 27.7642 100.636 32.3069 97.8737 32.3069ZM114.758 10.7349C113.186 10.7349 111.924 11.9954 111.924 13.5889C111.924 15.0398 112.853 16.0625 114.258 16.0625H114.305C115.853 16.0625 117.163 15.016 117.187 13.2084C117.21 11.7576 116.234 10.7349 114.758 10.7349ZM107.852 35.6842H112.781L116.115 18.1792H111.162L107.852 35.6842ZM128.689 18.1554H125.259L125.426 17.3468C125.712 15.6581 126.712 14.1835 128.379 14.1835C129.26 14.1835 129.951 14.4451 129.951 14.4451L130.903 10.5684C130.903 10.5684 130.07 10.1403 128.212 10.1403C126.474 10.1403 124.712 10.6397 123.378 11.7814C121.687 13.2084 120.902 15.2776 120.521 17.3706L120.378 18.1792H118.068L117.33 21.9133H119.639L117.02 35.708H121.949L124.569 21.9133H127.974L128.689 18.1554ZM140.572 18.1792C140.572 18.1792 137.476 25.9566 136.119 30.2139H136.071C135.976 28.8344 134.856 18.1792 134.856 18.1792H129.665L132.642 34.2096C132.689 34.5664 132.666 34.7804 132.523 35.0183C131.951 36.1361 130.975 37.2064 129.832 37.9913C128.903 38.6572 127.855 39.1091 127.022 39.3945L128.403 43.5805C129.403 43.3664 131.499 42.534 133.237 40.8929C135.476 38.7999 137.571 35.5415 139.714 31.1177L145.739 18.1554H140.572V18.1792Z" fill="#1F1F1F" style="fill:#1F1F1F;fill:color(display-p3 0.1216 0.1216 0.1216);fill-opacity:1;"/>
<path d="M30.9582 9.59323C30.8153 9.59323 27.6957 9.35539 27.6957 9.35539C27.6957 9.35539 25.5287 7.19105 25.2667 6.97699C25.1715 6.88186 25.0524 6.83429 24.9572 6.83429L23.2188 42.6529L35.7924 39.9416C35.7924 39.9416 31.3869 10.164 31.363 9.94999C31.2678 9.73593 31.1011 9.6408 30.9582 9.59323Z" fill="#5E8E3E" style="fill:#5E8E3E;fill:color(display-p3 0.3686 0.5569 0.2431);fill-opacity:1;"/>
</g>
<defs>
<clipPath id="clip0_540_267">
<rect width="145.74" height="45.6652" fill="white" style="fill:white;fill-opacity:1;" transform="translate(0 0.484009)"/>
</clipPath>
</defs>
</svg>
