<svg width="120" height="41" viewBox="0 0 120 41" fill="none" xmlns="http://www.w3.org/2000/svg">
<g clip-path="url(#clip0_540_248)">
<path d="M116.261 24.7258L119.59 26.9617C118.509 28.565 115.925 31.3157 111.457 31.3157C105.909 31.3157 101.777 26.9911 101.777 21.4897C101.777 15.6353 105.953 11.6637 110.99 11.6637C116.057 11.6637 118.539 15.7235 119.342 17.9153L119.78 19.0332L106.727 24.4757C107.72 26.4468 109.267 27.4471 111.457 27.4471C113.648 27.4471 115.166 26.3586 116.261 24.7258ZM106.026 21.1808L114.743 17.5328C114.261 16.3119 112.83 15.4441 111.122 15.4441C108.946 15.4441 105.924 17.3857 106.026 21.1808Z" fill="#FF302F" style="fill:#FF302F;fill:color(display-p3 1.0000 0.1882 0.1843);fill-opacity:1;"/>
<path d="M72.4456 21.4897C72.4456 27.1529 68.0655 31.3157 62.6925 31.3157C57.3196 31.3157 52.9395 27.1529 52.9395 21.4897C52.9395 15.7971 57.3196 11.6637 62.6925 11.6637C68.0655 11.6637 72.4456 15.7824 72.4456 21.4897ZM68.1677 21.4897C68.1677 17.9594 65.6272 15.5323 62.6779 15.5323C59.7286 15.5323 57.1882 17.9594 57.1882 21.4897C57.1882 24.9906 59.7286 27.4471 62.6779 27.4471C65.6418 27.4471 68.1677 24.9759 68.1677 21.4897Z" fill="#FFBA40" style="fill:#FFBA40;fill:color(display-p3 1.0000 0.7294 0.2510);fill-opacity:1;"/>
<path d="M88.8562 12.4285H92.9151V29.9035C92.9151 37.1553 88.6664 40.1414 83.6438 40.1414C78.9133 40.1414 76.0662 36.9347 75.0004 34.3311L78.7235 32.7719C79.3951 34.3752 81.0157 36.2728 83.6438 36.2728C86.8705 36.2728 88.8562 34.2576 88.8562 30.4919V29.0798H88.7102C87.7465 30.2565 85.9069 31.3156 83.5708 31.3156C78.6943 31.3156 74.2266 27.0352 74.2266 21.5191C74.2266 15.9735 78.6943 11.6489 83.5708 11.6489C85.8923 11.6489 87.7465 12.6933 88.7102 13.8407H88.8562V12.4285ZM89.1482 21.5191C89.1482 18.0476 86.8559 15.5175 83.9358 15.5175C80.9866 15.5175 78.5045 18.0476 78.5045 21.5191C78.5045 24.9464 80.9866 27.4323 83.9358 27.4323C86.8559 27.447 89.1482 24.9464 89.1482 21.5191Z" fill="#3686F7" style="fill:#3686F7;fill:color(display-p3 0.2118 0.5255 0.9686);fill-opacity:1;"/>
<path d="M51.1448 21.4455C51.1448 27.1086 46.7647 31.2715 41.3917 31.2715C36.0188 31.2715 31.6387 27.0939 31.6387 21.4455C31.6387 15.7528 36.0188 11.6047 41.3917 11.6047C46.7647 11.6047 51.1448 15.7528 51.1448 21.4455ZM46.8815 21.4455C46.8815 17.9151 44.341 15.4881 41.3917 15.4881C38.4425 15.4881 35.902 17.9151 35.902 21.4455C35.902 24.9463 38.4425 27.4028 41.3917 27.4028C44.341 27.4028 46.8815 24.9463 46.8815 21.4455Z" fill="#FF302F" style="fill:#FF302F;fill:color(display-p3 1.0000 0.1882 0.1843);fill-opacity:1;"/>
<path d="M95.4844 1.64642H99.6893V30.4184H95.4844V1.64642Z" fill="#20B15A" style="fill:#20B15A;fill:color(display-p3 0.1255 0.6941 0.3529);fill-opacity:1;"/>
<path d="M15.6065 27.0057C9.48889 27.0057 4.69996 22.0339 4.69996 15.8705C4.69996 9.70722 9.48889 4.73538 15.6065 4.73538C18.9062 4.73538 21.3152 6.04454 23.0965 7.72143L26.0312 4.7648C23.5491 2.36714 20.2348 0.543152 15.6065 0.543152C7.22583 0.543152 0.173828 7.42724 0.173828 15.8705C0.173828 24.3138 7.22583 31.1979 15.6065 31.1979C20.1326 31.1979 23.5491 29.6976 26.221 26.9027C28.9658 24.1373 29.8127 20.254 29.8127 17.1061C29.8127 16.1206 29.6959 15.1056 29.5645 14.3555H15.6065V18.4447H25.5493C25.2573 21.0042 24.4543 22.7546 23.2717 23.9461C21.8408 25.4024 19.5778 27.0057 15.6065 27.0057Z" fill="#3686F7" style="fill:#3686F7;fill:color(display-p3 0.2118 0.5255 0.9686);fill-opacity:1;"/>
</g>
<defs>
<clipPath id="clip0_540_248">
<rect width="120" height="39.6694" fill="white" style="fill:white;fill-opacity:1;" transform="translate(0 0.481934)"/>
</clipPath>
</defs>
</svg>
