<svg width="170" height="37" viewBox="0 0 170 37" fill="none" xmlns="http://www.w3.org/2000/svg">
<g clip-path="url(#clip0_540_261)">
<path d="M19.0547 19.2161H36.308V36.446H19.0547V19.2161Z" fill="#FFB900" style="fill:#FFB900;fill:color(display-p3 1.0000 0.7255 0.0000);fill-opacity:1;"/>
<path d="M0 19.2161H17.2533V36.446H0V19.2161Z" fill="#00A4EF" style="fill:#00A4EF;fill:color(display-p3 0.0000 0.6431 0.9373);fill-opacity:1;"/>
<path d="M60.0063 21.071L58.9931 23.9379H58.9086C58.7398 23.2915 58.4302 22.3077 57.9235 21.1272L52.4914 7.49502H47.1719V29.2222H50.6901V15.8149C50.6901 14.9716 50.6901 14.016 50.6619 12.8355C50.6338 12.2452 50.5775 11.7955 50.5494 11.4582H50.6338C50.8027 12.3014 50.9997 12.9198 51.1404 13.3133L57.6702 29.1659H60.147L66.6205 13.1727C66.7613 12.8073 66.902 12.0765 67.0427 11.4582H67.1272C67.0427 13.0603 66.9864 14.4938 66.9583 15.3651V29.1378H70.7017V7.4388H65.5792L60.0063 21.071ZM74.248 13.5662H77.907V29.1378H74.248V13.5662ZM76.1056 6.98908C75.4864 6.98908 74.9798 7.21394 74.5576 7.60745C74.1354 8.00095 73.9103 8.50689 73.9103 9.12525C73.9103 9.71551 74.1354 10.2214 74.5576 10.615C74.9798 11.0085 75.4864 11.2052 76.1056 11.2052C76.7248 11.2052 77.2596 10.9804 77.6537 10.615C78.0758 10.2214 78.301 9.71551 78.301 9.12525C78.301 8.535 78.0758 8.02906 77.6537 7.60745C77.2878 7.21394 76.753 6.98908 76.1056 6.98908ZM90.8821 13.4257C90.2066 13.2852 89.503 13.2009 88.8275 13.2009C87.1669 13.2009 85.647 13.5662 84.3805 14.297C83.1139 15.0278 82.1007 16.0397 81.4533 17.3046C80.7778 18.5975 80.4401 20.0872 80.4401 21.8018C80.4401 23.2915 80.7778 24.6125 81.4252 25.8211C82.0725 27.0017 82.9732 27.9573 84.1835 28.6038C85.3374 29.2503 86.6884 29.5876 88.2083 29.5876C89.9533 29.5876 91.445 29.2222 92.6272 28.5476L92.6553 28.5195V25.1466L92.5146 25.259C91.9798 25.6525 91.3606 25.9898 90.7414 26.1865C90.0941 26.4114 89.503 26.5238 88.9964 26.5238C87.5328 26.5238 86.3788 26.1022 85.5626 25.1747C84.7182 24.2752 84.296 23.0385 84.296 21.4926C84.296 19.8905 84.7182 18.6256 85.5907 17.6981C86.4633 16.7705 87.6172 16.2927 89.0245 16.2927C90.2066 16.2927 91.4169 16.6862 92.5146 17.4732L92.6553 17.5856V14.016L92.6272 13.9879C92.1487 13.7911 91.6139 13.5662 90.8821 13.4257ZM102.957 13.3133C102.056 13.3133 101.212 13.5944 100.48 14.1846C99.8606 14.6906 99.4384 15.4213 99.0725 16.2927H99.0444V13.5662H95.3854V29.1378H99.0444V21.1834C99.0444 19.8342 99.3258 18.7099 99.945 17.8948C100.564 17.0516 101.352 16.63 102.309 16.63C102.647 16.63 102.985 16.7143 103.407 16.7705C103.801 16.8829 104.082 16.9954 104.279 17.1359L104.42 17.2483V13.5944L104.336 13.5662C104.082 13.3976 103.576 13.3133 102.957 13.3133ZM112.92 13.229C110.359 13.229 108.304 13.9879 106.869 15.4776C105.405 16.9673 104.702 19.0191 104.702 21.605C104.702 24.0223 105.433 25.9898 106.841 27.4233C108.248 28.8287 110.162 29.5595 112.554 29.5595C115.059 29.5595 117.058 28.8005 118.493 27.2827C119.957 25.7649 120.66 23.7412 120.66 21.2396C120.66 18.7661 119.985 16.7986 118.606 15.3651C117.283 13.9316 115.341 13.229 112.92 13.229ZM115.847 25.2028C115.172 26.0741 114.102 26.4957 112.779 26.4957C111.457 26.4957 110.387 26.0741 109.627 25.1466C108.867 24.2752 108.501 23.0104 108.501 21.4083C108.501 19.7499 108.895 18.4851 109.627 17.5856C110.387 16.6862 111.428 16.2365 112.751 16.2365C114.046 16.2365 115.059 16.6581 115.791 17.5294C116.523 18.4007 116.917 19.6656 116.917 21.3239C116.861 23.0104 116.551 24.3314 115.847 25.2028ZM128.823 20.031C127.669 19.5532 126.937 19.1878 126.599 18.8786C126.318 18.5975 126.177 18.204 126.177 17.6981C126.177 17.2764 126.346 16.8548 126.768 16.5738C127.19 16.2927 127.669 16.1521 128.372 16.1521C128.991 16.1521 129.639 16.2646 130.258 16.4332C130.877 16.6019 131.44 16.8548 131.89 17.1921L132.031 17.3046V13.8754L131.947 13.8473C131.525 13.6787 130.962 13.51 130.286 13.3695C129.611 13.2571 128.991 13.2009 128.485 13.2009C126.74 13.2009 125.304 13.6225 124.178 14.55C123.053 15.4213 122.518 16.6019 122.518 17.9791C122.518 18.7099 122.63 19.3564 122.884 19.8904C123.137 20.4245 123.503 20.9304 124.01 21.352C124.516 21.7456 125.248 22.1953 126.261 22.6169C127.106 22.9823 127.753 23.2634 128.147 23.4882C128.541 23.7131 128.794 23.966 128.991 24.1628C129.132 24.3877 129.217 24.6687 129.217 25.0341C129.217 26.0741 128.428 26.58 126.824 26.58C126.205 26.58 125.558 26.4676 124.798 26.2147C124.038 25.9617 123.334 25.5963 122.743 25.1747L122.602 25.0622V28.6319L122.687 28.66C123.222 28.913 123.869 29.0816 124.657 29.2784C125.445 29.4189 126.149 29.5313 126.768 29.5313C128.654 29.5313 130.202 29.1097 131.299 28.1822C132.425 27.2827 133.016 26.1303 133.016 24.6406C133.016 23.6006 132.735 22.6731 132.116 21.9704C131.299 21.2958 130.286 20.5931 128.823 20.031ZM142.67 13.229C140.109 13.229 138.054 13.9879 136.619 15.4776C135.183 16.9673 134.452 19.0191 134.452 21.605C134.452 24.0223 135.183 25.9898 136.591 27.4233C137.998 28.8287 139.912 29.5595 142.304 29.5595C144.809 29.5595 146.808 28.8005 148.243 27.2827C149.707 25.7649 150.41 23.7412 150.41 21.2396C150.41 18.7661 149.735 16.7986 148.356 15.3651C147.033 13.9316 145.091 13.229 142.67 13.229ZM145.569 25.2028C144.894 26.0741 143.824 26.4957 142.501 26.4957C141.15 26.4957 140.109 26.0741 139.349 25.1466C138.589 24.2752 138.223 23.0104 138.223 21.4083C138.223 19.7499 138.617 18.4851 139.349 17.5856C140.109 16.6862 141.15 16.2365 142.473 16.2365C143.74 16.2365 144.781 16.6581 145.513 17.5294C146.245 18.4007 146.639 19.6656 146.639 21.3239C146.639 23.0104 146.273 24.3314 145.569 25.2028ZM169.972 16.5738V13.5662H166.284V8.95661L166.172 8.98472L162.682 10.0247L162.597 10.0528V13.5662H157.081V11.5987C157.081 10.6993 157.306 9.99659 157.7 9.54687C158.094 9.09715 158.685 8.87229 159.417 8.87229C159.924 8.87229 160.458 8.98472 161.049 9.23768L161.19 9.32201V6.14585L161.106 6.11775C160.599 5.9491 159.924 5.83667 159.051 5.83667C157.953 5.83667 156.996 6.08964 156.124 6.51125C155.251 6.98908 154.604 7.63555 154.125 8.50689C153.647 9.35011 153.394 10.3058 153.394 11.402V13.5662H150.832V16.5456H153.394V29.1378H157.081V16.5738H162.597V24.5844C162.597 27.873 164.145 29.5313 167.241 29.5313C167.748 29.5313 168.283 29.447 168.789 29.3627C169.324 29.2503 169.718 29.1097 169.943 28.9973L169.972 28.9692V25.9617L169.831 26.0741C169.606 26.2147 169.409 26.3271 169.071 26.4114C168.789 26.4957 168.536 26.5238 168.339 26.5238C167.607 26.5238 167.101 26.3552 166.735 25.9336C166.397 25.5401 166.228 24.8936 166.228 23.9379V16.5738H169.972Z" fill="#737373" style="fill:#737373;fill:color(display-p3 0.4510 0.4510 0.4510);fill-opacity:1;"/>
<path d="M19.0547 0.187256H36.308V17.4172H19.0547V0.187256Z" fill="#7FBA00" style="fill:#7FBA00;fill:color(display-p3 0.4980 0.7294 0.0000);fill-opacity:1;"/>
<path d="M0 0.187256H17.2533V17.4172H0V0.187256Z" fill="#F25022" style="fill:#F25022;fill:color(display-p3 0.9490 0.3137 0.1333);fill-opacity:1;"/>
</g>
<defs>
<clipPath id="clip0_540_261">
<rect width="170" height="36.2587" fill="white" style="fill:white;fill-opacity:1;" transform="translate(0 0.187256)"/>
</clipPath>
</defs>
</svg>
