<svg width="141" height="67" viewBox="0 0 141 67" fill="none" xmlns="http://www.w3.org/2000/svg">
<path d="M75.0852 20.7537H67.5879V46.9578H75.0852V20.7537Z" fill="#32325D" style="fill:#32325D;fill:color(display-p3 0.1961 0.1961 0.3647);fill-opacity:1;"/>
<path fill-rule="evenodd" clip-rule="evenodd" d="M59.5528 22.9698L59.0749 20.7536H52.623V46.9577H60.0905V29.1989C61.8528 26.8929 64.8397 27.3122 65.7657 27.6416V20.7536C64.8099 20.3943 61.3151 19.7354 59.5528 22.9698Z" fill="#32325D" style="fill:#32325D;fill:color(display-p3 0.1961 0.1961 0.3647);fill-opacity:1;"/>
<path fill-rule="evenodd" clip-rule="evenodd" d="M124.4 33.9605C124.4 26.294 120.696 20.2446 113.617 20.2446C106.508 20.2446 102.207 26.294 102.207 33.9006C102.207 42.9149 107.285 47.4669 114.573 47.4669C118.128 47.4669 120.816 46.6583 122.847 45.5203V39.5308C120.816 40.549 118.486 41.1779 115.529 41.1779C112.632 41.1779 110.063 40.1597 109.734 36.6259H124.34C124.34 36.2366 124.4 34.6793 124.4 33.9605ZM109.645 31.1155C109.645 27.7315 111.706 26.3239 113.587 26.3239C115.409 26.3239 117.351 27.7315 117.351 31.1155H109.645Z" fill="#32325D" style="fill:#32325D;fill:color(display-p3 0.1961 0.1961 0.3647);fill-opacity:1;"/>
<path fill-rule="evenodd" clip-rule="evenodd" d="M90.6774 20.2446C87.7501 20.2446 85.8684 21.6222 84.8229 22.5805L84.4346 20.7237H77.8633V55.6426L85.3307 54.0553L85.3606 45.5802C86.4359 46.3588 88.019 47.4669 90.6475 47.4669C95.9942 47.4669 100.863 43.1544 100.863 33.6611C100.833 24.9763 95.9046 20.2446 90.6774 20.2446ZM88.8852 40.8784C87.1229 40.8784 86.0774 40.2495 85.3606 39.4709L85.3307 28.3603C86.1073 27.4919 87.1826 26.8929 88.8852 26.8929C91.6033 26.8929 93.4851 29.9476 93.4851 33.8707C93.4851 37.8837 91.6332 40.8784 88.8852 40.8784Z" fill="#32325D" style="fill:#32325D;fill:color(display-p3 0.1961 0.1961 0.3647);fill-opacity:1;"/>
<path fill-rule="evenodd" clip-rule="evenodd" d="M24.4262 28.3603C24.4262 27.1924 25.382 26.7432 26.9651 26.7432C29.2352 26.7432 32.1027 27.432 34.3728 28.6598V21.6222C31.8936 20.6339 29.4443 20.2446 26.9651 20.2446C20.9015 20.2446 16.8691 23.419 16.8691 28.7197C16.8691 36.9852 28.2196 35.6675 28.2196 39.2313C28.2196 40.6089 27.0248 41.0581 25.3521 41.0581C22.8729 41.0581 19.7068 40.0399 17.1977 38.6623V45.7898C19.9756 46.9877 22.7833 47.4968 25.3521 47.4968C31.565 47.4968 35.8364 44.4122 35.8364 39.0516C35.8065 30.1273 24.4262 31.7145 24.4262 28.3603Z" fill="#32325D" style="fill:#32325D;fill:color(display-p3 0.1961 0.1961 0.3647);fill-opacity:1;"/>
<path fill-rule="evenodd" clip-rule="evenodd" d="M44.6189 14.2551L37.3307 15.8123L37.3008 39.8003C37.3008 44.2326 40.6163 47.4968 45.037 47.4968C47.4863 47.4968 49.2785 47.0476 50.2642 46.5086V40.4292C49.3084 40.8185 44.589 42.1961 44.589 37.7639V27.1325H50.2642V20.7537H44.589L44.6189 14.2551Z" fill="#32325D" style="fill:#32325D;fill:color(display-p3 0.1961 0.1961 0.3647);fill-opacity:1;"/>
<path fill-rule="evenodd" clip-rule="evenodd" d="M67.5879 18.4776L75.0852 16.8605V10.7811L67.5879 12.3683V18.4776Z" fill="#32325D" style="fill:#32325D;fill:color(display-p3 0.1961 0.1961 0.3647);fill-opacity:1;"/>
</svg>
