<svg width="17" height="17" viewBox="0 0 17 17" fill="none" xmlns="http://www.w3.org/2000/svg">
<path d="M8.49978 1.04468C4.58867 1.04468 1.38867 4.24468 1.38867 8.15579C1.38867 12.0669 4.58867 15.2669 8.49978 15.2669C12.4109 15.2669 15.6109 12.0669 15.6109 8.15579C15.6109 4.24468 12.4109 1.04468 8.49978 1.04468ZM8.49978 13.8447C5.36378 13.8447 2.81089 11.2918 2.81089 8.15579C2.81089 5.01979 5.36378 2.4669 8.49978 2.4669C11.6358 2.4669 14.1887 5.01979 14.1887 8.15579C14.1887 11.2918 11.6358 13.8447 8.49978 13.8447ZM11.7638 5.01268L7.07756 9.6989L5.23578 7.86423L4.23312 8.8669L7.07756 11.7113L12.7664 6.02246L11.7638 5.01268Z" fill="#102880" style="fill:#102880;fill:color(display-p3 0.0627 0.1569 0.5020);fill-opacity:1;"/>
</svg>
