<svg width="15" height="15" viewBox="0 0 15 15" fill="none" xmlns="http://www.w3.org/2000/svg">
<path d="M8.90625 4.44844C9.79138 3.65497 10.4921 2.67742 10.9594 1.58438C10.9884 1.51377 10.9997 1.43715 10.9923 1.36118C10.985 1.2852 10.9592 1.21218 10.9172 1.14844C10.8765 1.08652 10.8218 1.03512 10.7574 0.998451C10.693 0.961785 10.6209 0.940897 10.5469 0.9375H4.45312C4.37592 0.937899 4.30001 0.957363 4.23213 0.994162C4.16426 1.03096 4.10653 1.08396 4.06406 1.14844C4.02207 1.21218 3.99628 1.2852 3.98892 1.36118C3.98157 1.43715 3.99288 1.51377 4.02187 1.58438C4.49456 2.67919 5.20183 3.65689 6.09375 4.44844C3.46406 5.27344 1.40625 8.19844 1.40625 10.6922C1.40625 14.0625 5.22187 14.0625 7.5 14.0625C9.77812 14.0625 13.5938 14.0625 13.5938 10.6922C13.5938 8.2125 11.5547 5.27344 8.90625 4.44844ZM5.20781 1.875H9.79219C9.375 2.59687 8.65312 3.70312 7.69688 4.11562C7.56629 3.69358 7.49993 3.25429 7.5 2.8125C7.5 2.68818 7.45061 2.56895 7.36271 2.48104C7.2748 2.39314 7.15557 2.34375 7.03125 2.34375C6.90693 2.34375 6.7877 2.39314 6.69979 2.48104C6.61189 2.56895 6.5625 2.68818 6.5625 2.8125C6.56554 3.10908 6.58903 3.40509 6.63281 3.69844C6.05355 3.17984 5.57105 2.56243 5.20781 1.875ZM7.5 13.125C4.15781 13.125 2.34375 12.7359 2.34375 10.6922C2.34375 8.25 4.77187 5.15625 7.5 5.15625C10.2281 5.15625 12.6562 8.25 12.6562 10.6922C12.6562 12.7359 10.8422 13.125 7.5 13.125Z" fill="#102880" style="fill:#102880;fill:color(display-p3 0.0627 0.1569 0.5020);fill-opacity:1;"/>
<path d="M7.5 7.5C7.67069 7.48563 7.84017 7.53906 7.97177 7.64872C8.10336 7.75838 8.18648 7.91545 8.20312 8.08594C8.20312 8.21026 8.25251 8.32949 8.34042 8.41739C8.42833 8.5053 8.54755 8.55469 8.67188 8.55469C8.7962 8.55469 8.91542 8.5053 9.00333 8.41739C9.09124 8.32949 9.14062 8.21026 9.14062 8.08594C9.13098 7.74893 9.01117 7.42436 8.79953 7.16192C8.58788 6.89948 8.29607 6.71363 7.96875 6.63281V6.32812C7.96875 6.2038 7.91936 6.08458 7.83146 5.99667C7.74355 5.90876 7.62432 5.85938 7.5 5.85938C7.37568 5.85938 7.25645 5.90876 7.16854 5.99667C7.08064 6.08458 7.03125 6.2038 7.03125 6.32812V6.63281C6.70356 6.71292 6.4113 6.89857 6.19953 7.16117C5.98777 7.42376 5.86824 7.74871 5.85938 8.08594C5.85937 9.13594 6.99375 9.49219 7.36406 9.59062C8.20312 9.83906 8.20312 9.95156 8.20312 10.1953C8.18648 10.3658 8.10336 10.5229 7.97177 10.6325C7.84017 10.7422 7.67069 10.7956 7.5 10.7812C7.32931 10.7956 7.15983 10.7422 7.02823 10.6325C6.89664 10.5229 6.81352 10.3658 6.79688 10.1953C6.79688 10.071 6.74749 9.95176 6.65958 9.86386C6.57167 9.77595 6.45245 9.72656 6.32812 9.72656C6.2038 9.72656 6.08458 9.77595 5.99667 9.86386C5.90876 9.95176 5.85938 10.071 5.85938 10.1953C5.86824 10.5325 5.98777 10.8575 6.19953 11.1201C6.4113 11.3827 6.70356 11.5683 7.03125 11.6484V11.9531C7.03125 12.0774 7.08064 12.1967 7.16854 12.2846C7.25645 12.3725 7.37568 12.4219 7.5 12.4219C7.62432 12.4219 7.74355 12.3725 7.83146 12.2846C7.91936 12.1967 7.96875 12.0774 7.96875 11.9531V11.6484C8.29607 11.5676 8.58788 11.3818 8.79953 11.1193C9.01117 10.8569 9.13098 10.5323 9.14062 10.1953C9.14062 9.22031 8.45625 8.93906 7.63594 8.69063C6.81563 8.44219 6.79688 8.18438 6.79688 8.08594C6.81352 7.91545 6.89664 7.75838 7.02823 7.64872C7.15983 7.53906 7.32931 7.48563 7.5 7.5Z" fill="#102880" style="fill:#102880;fill:color(display-p3 0.0627 0.1569 0.5020);fill-opacity:1;"/>
</svg>
