<svg width="80" height="82" viewBox="0 0 80 82" fill="none" xmlns="http://www.w3.org/2000/svg">
<rect x="1.19922" y="1.42773" width="77.8017" height="79.3132" rx="3.5" fill="white" style="fill:white;fill-opacity:1;"/>
<rect x="1.19922" y="1.42773" width="77.8017" height="79.3132" rx="3.5" stroke="white" style="stroke:white;stroke-opacity:1;"/>
<path d="M66.7523 32.4335C66.5869 32.474 66.4439 32.5796 66.3546 32.7272C66.2653 32.8748 66.2369 33.0524 66.2756 33.2213C66.7451 35.2523 66.9829 37.3318 66.9842 39.4184C66.9759 46.4788 64.2203 53.2476 59.3218 58.2401C54.4233 63.2326 47.7818 66.041 40.8543 66.0495C35.1646 66.0698 29.6275 64.1744 25.1034 60.6576C25.7108 59.7345 25.9535 58.6116 25.7829 57.5138C25.6122 56.416 25.0408 55.4245 24.1831 54.738C23.3254 54.0515 22.2449 53.7207 21.158 53.8119C20.0711 53.9032 19.0582 54.4097 18.3222 55.2299C17.5863 56.0502 17.1817 57.1236 17.1896 58.235C17.1974 59.3465 17.6171 60.4138 18.3645 61.2232C19.1119 62.0326 20.1319 62.5242 21.2199 62.5995C22.308 62.6748 23.3838 62.3282 24.2317 61.6292C28.9951 65.3667 34.8428 67.3836 40.8543 67.3624C44.9957 67.3579 49.0824 66.3983 52.8082 64.5555C56.534 62.7128 59.8024 60.0346 62.3685 56.7217C64.9346 53.4088 66.7318 49.547 67.6256 45.4256C68.5194 41.3043 68.4866 37.0303 67.5295 32.9237C67.5103 32.8393 67.475 32.7597 67.4254 32.6893C67.3759 32.619 67.3132 32.5593 67.241 32.5138C67.1688 32.4682 67.0884 32.4377 67.0045 32.4239C66.9206 32.4101 66.8349 32.4134 66.7523 32.4335Z" fill="#4F4F4F" style="fill:#4F4F4F;fill:color(display-p3 0.3083 0.3083 0.3083);fill-opacity:1;"/>
<path d="M14.7238 39.4182C14.7241 34.6812 15.9641 30.0299 18.3158 25.944C20.6676 21.8581 24.0461 18.4854 28.103 16.1737C32.1599 13.862 36.7483 12.6949 41.3953 12.7927C46.0422 12.8906 50.5794 14.2499 54.5391 16.7304C54.1304 17.6216 54.065 18.6367 54.3558 19.5747C54.6467 20.5127 55.2726 21.3052 56.1095 21.7951C56.9465 22.2851 57.9335 22.4369 58.875 22.2203C59.8165 22.0038 60.6439 21.4348 61.1933 20.626C61.7427 19.8172 61.9741 18.8276 61.8415 17.8532C61.7089 16.8788 61.2221 15.9907 60.4776 15.3647C59.733 14.7388 58.7849 14.4207 57.821 14.4734C56.8572 14.5261 55.948 14.9458 55.2734 15.6494C51.12 13.0326 46.3562 11.5936 41.4745 11.4812C36.5927 11.3689 31.7701 12.5872 27.5049 15.0103C23.2398 17.4334 19.687 20.9733 17.2135 25.2643C14.7401 29.5553 13.4359 34.4416 13.4356 39.4182C13.4333 41.1241 13.5856 42.8265 13.8908 44.5037C13.9169 44.6549 13.9946 44.7917 14.1101 44.8902C14.2256 44.9887 14.3714 45.0424 14.522 45.0421C14.561 45.042 14.5999 45.0376 14.6379 45.0289C14.8058 44.998 14.9549 44.9005 15.0523 44.7577C15.1497 44.6149 15.1875 44.4386 15.1575 44.2674C14.8681 42.6679 14.7229 41.0447 14.7238 39.4182Z" fill="#4F4F4F" style="fill:#4F4F4F;fill:color(display-p3 0.3083 0.3083 0.3083);fill-opacity:1;"/>
<path d="M36.9883 35.0812V35.4751H44.7177V35.0812C44.6576 29.7594 37.0484 29.7594 36.9883 35.0812Z" fill="#4F4F4F" style="fill:#4F4F4F;fill:color(display-p3 0.3083 0.3083 0.3083);fill-opacity:1;"/>
<path d="M58.8676 25.7769C51.6191 25.8513 44.6454 21.2866 41.9788 19.3172C41.6513 19.0761 41.2576 18.9463 40.8537 18.9463C40.4497 18.9463 40.0561 19.0761 39.7286 19.3172C37.062 21.2866 30.0711 25.8338 22.8398 25.7769C22.5829 25.7743 22.3282 25.8235 22.0901 25.9216C21.852 26.0198 21.6353 26.165 21.4525 26.3489C21.2697 26.5327 21.1244 26.7516 21.025 26.993C20.9255 27.2343 20.8739 27.4933 20.873 27.7551C20.8773 37.8604 22.8612 52.316 39.982 61.1478C40.252 61.2881 40.5507 61.3612 40.8537 61.3612C41.1567 61.3612 41.4554 61.2881 41.7254 61.1478C58.8462 52.316 60.83 37.8604 60.8343 27.7551C60.8305 27.2271 60.6212 26.7222 60.2525 26.3513C59.8837 25.9805 59.3857 25.7739 58.8676 25.7769ZM47.939 45.76C47.939 46.6306 47.5997 47.4655 46.9957 48.081C46.3918 48.6966 45.5726 49.0424 44.7184 49.0424H36.989C36.1348 49.0424 35.3156 48.6966 34.7117 48.081C34.1077 47.4655 33.7684 46.6306 33.7684 45.76V38.7576C33.7687 38.1192 33.9517 37.4948 34.2949 36.9608C34.6381 36.4267 35.1266 36.0063 35.7007 35.7509V35.0726C35.778 28.0483 45.9294 28.0483 46.0067 35.0726V35.7509C46.5807 36.0063 47.0693 36.4267 47.4125 36.9608C47.7557 37.4948 47.9387 38.1192 47.939 38.7576V45.76Z" fill="#4F4F4F" style="fill:#4F4F4F;fill:color(display-p3 0.3083 0.3083 0.3083);fill-opacity:1;"/>
<path d="M41.9078 41.5047C41.8982 41.446 41.9009 41.3858 41.9157 41.3282C41.9305 41.2706 41.9571 41.2168 41.9936 41.1704C42.1375 40.9584 42.2217 40.7103 42.2371 40.4531C42.2525 40.1958 42.1986 39.9391 42.0812 39.7109C41.9638 39.4826 41.7873 39.2914 41.5709 39.158C41.3545 39.0246 41.1064 38.9541 40.8535 38.9541C40.6006 38.9541 40.3526 39.0246 40.1362 39.158C39.9198 39.2914 39.7433 39.4826 39.6259 39.7109C39.5085 39.9391 39.4545 40.1958 39.47 40.4531C39.4854 40.7103 39.5696 40.9584 39.7134 41.1704C39.7498 41.2163 39.7763 41.2696 39.7911 41.3267C39.8059 41.3838 39.8087 41.4434 39.7993 41.5017C39.6984 42.0142 39.4129 43.4794 39.2115 44.4965C39.187 44.6234 39.1904 44.7542 39.2214 44.8796C39.2524 45.0049 39.3103 45.1217 39.3909 45.2216C39.4715 45.3214 39.5728 45.4018 39.6875 45.457C39.8023 45.5122 39.9275 45.5408 40.0544 45.5408H41.6518C41.7789 45.5408 41.9044 45.5121 42.0193 45.4567C42.1342 45.4014 42.2356 45.3207 42.3162 45.2206C42.3968 45.1204 42.4546 45.0033 42.4854 44.8776C42.5162 44.752 42.5192 44.6209 42.4943 44.4939L41.9078 41.5047Z" fill="#4F4F4F" style="fill:#4F4F4F;fill:color(display-p3 0.3083 0.3083 0.3083);fill-opacity:1;"/>
</svg>
