<svg width="10" height="10" viewBox="0 0 10 10" fill="none" xmlns="http://www.w3.org/2000/svg">
<path d="M5.30813 5.7209L5.27433 5.68575L5.24054 5.7209L1.67034 9.43447C1.59819 9.5095 1.50073 9.5513 1.39952 9.5513C1.29831 9.5513 1.20086 9.5095 1.12871 9.43447C1.0565 9.35937 1.01563 9.25714 1.01562 9.15017C1.01562 9.0432 1.0565 8.94097 1.12871 8.86587L4.69945 5.15287L4.7307 5.12038L4.69945 5.08788L1.12871 1.37488C1.0565 1.29978 1.01562 1.19755 1.01562 1.09058C1.01562 0.983616 1.0565 0.881383 1.12871 0.806285C1.20086 0.73125 1.29831 0.689453 1.39952 0.689453C1.50073 0.689453 1.59819 0.731249 1.67034 0.806282C1.67034 0.806283 1.67034 0.806284 1.67034 0.806285L5.24054 4.51985L5.27433 4.555L5.30813 4.51985L8.87833 0.806282C8.95048 0.73125 9.04793 0.689453 9.14914 0.689453C9.25035 0.689453 9.34781 0.73125 9.41996 0.806285C9.49217 0.881383 9.53304 0.983616 9.53304 1.09058C9.53304 1.19755 9.49217 1.29978 9.41996 1.37488L5.84921 5.08788L5.81797 5.12038L5.84921 5.15287L9.41996 8.86587C9.4557 8.90304 9.48414 8.94727 9.50358 8.99607C9.52302 9.04487 9.53304 9.09724 9.53304 9.15017C9.53304 9.2031 9.52302 9.25546 9.50358 9.30427C9.48414 9.35307 9.4557 9.39729 9.41996 9.43447C9.38422 9.47163 9.3419 9.50101 9.29545 9.52102C9.24901 9.54103 9.1993 9.5513 9.14914 9.5513C9.09899 9.5513 9.04928 9.54103 9.00284 9.52102C8.95639 9.50101 8.91407 9.47163 8.87833 9.43447L5.30813 5.7209Z" fill="#E7EAF2" stroke="#E7EAF2" style="fill:#E7EAF2;fill:color(display-p3 0.9059 0.9176 0.9490);fill-opacity:1;stroke:#E7EAF2;stroke:color(display-p3 0.9059 0.9176 0.9490);stroke-opacity:1;" stroke-width="0.09375"/>
</svg>
