<svg width="23" height="26" viewBox="0 0 23 26" fill="none" xmlns="http://www.w3.org/2000/svg">
<path d="M22.4991 11.8725V6.39336C22.4991 5.88503 22.3283 5.37669 21.9866 4.86836C21.6449 4.3628 21.2394 4.01142 20.7699 3.81419L13.7991 0.972526C13.0158 0.661415 12.1991 0.505859 11.3491 0.505859C10.5019 0.505859 9.68659 0.661415 8.90326 0.972526L1.96159 3.81419C1.4727 4.01142 1.06298 4.3628 0.732422 4.86836C0.399088 5.37669 0.232422 5.88503 0.232422 6.39336V11.8725C0.232422 13.4142 0.496311 14.9086 1.02409 16.3559C1.55187 17.7809 2.27964 19.0934 3.20742 20.2934C4.1352 21.4961 5.24353 22.5461 6.53242 23.4434C7.82131 24.3239 9.21714 24.9781 10.7199 25.4059C10.9366 25.4642 11.1519 25.4934 11.3658 25.4934C11.5796 25.4934 11.7949 25.4642 12.0116 25.4059C13.5144 24.9781 14.9102 24.3239 16.1991 23.4434C17.488 22.5461 18.5963 21.4961 19.5241 20.2934C20.4519 19.0934 21.1796 17.7809 21.7074 16.3559C22.2352 14.9086 22.4991 13.4142 22.4991 11.8725ZM12.3033 14.0684V17.3517C12.3033 17.6045 12.2102 17.8239 12.0241 18.01C11.838 18.1961 11.6185 18.2892 11.3658 18.2892C11.113 18.2892 10.8935 18.1961 10.7074 18.01C10.5213 17.8239 10.4283 17.6045 10.4283 17.3517V14.0684C9.80326 13.8739 9.28103 13.5072 8.86159 12.9684C8.44214 12.4322 8.23242 11.8128 8.23242 11.11C8.23242 10.2517 8.53937 9.51419 9.15326 8.89753C9.76992 8.28364 10.5074 7.97669 11.3658 7.97669C12.2241 7.97669 12.9616 8.28364 13.5783 8.89753C14.1921 9.51419 14.4991 10.2517 14.4991 11.11C14.4991 11.8128 14.2894 12.4322 13.8699 12.9684C13.4505 13.5072 12.9283 13.8739 12.3033 14.0684Z" fill="#4F4F4F" style="fill:#4F4F4F;fill:color(display-p3 0.3083 0.3083 0.3083);fill-opacity:1;"/>
</svg>
