<svg width="98" height="18" viewBox="0 0 98 18" fill="none" xmlns="http://www.w3.org/2000/svg">
<path d="M8.90909 0.0908203L6.68182 6.77264H0L5.56818 11.2272L3.34091 17.909L8.90909 13.4545L14.4773 17.909L12.25 11.2272L17.8182 6.77264H11.1364L8.90909 0.0908203Z" fill="#0078F6" style="fill:#0078F6;fill:color(display-p3 0.0000 0.4706 0.9647);fill-opacity:1;"/>
<path d="M28.9545 0.0908314L26.7273 6.77265H20.0454L25.6136 11.2272L23.3864 17.909L28.9545 13.4545L34.5227 17.909L32.2954 11.2272L37.8636 6.77265H31.1818L28.9545 0.0908314Z" fill="#0078F6" style="fill:#0078F6;fill:color(display-p3 0.0000 0.4706 0.9647);fill-opacity:1;"/>
<path d="M49 0.0908314L46.7727 6.77265H40.0909L45.6591 11.2272L43.4318 17.909L49 13.4545L54.5682 17.909L52.3409 11.2272L57.9091 6.77265H51.2273L49 0.0908314Z" fill="#0078F6" style="fill:#0078F6;fill:color(display-p3 0.0000 0.4706 0.9647);fill-opacity:1;"/>
<path d="M69.0455 0.0908314L66.8182 6.77265H60.1364L65.7046 11.2272L63.4773 17.909L69.0455 13.4545L74.6136 17.909L72.3864 11.2272L77.9546 6.77265H71.2727L69.0455 0.0908314Z" fill="#0078F6" style="fill:#0078F6;fill:color(display-p3 0.0000 0.4706 0.9647);fill-opacity:1;"/>
<path d="M89.0909 0.0908314L86.8636 6.77265H80.1818L85.75 11.2272L83.5227 17.909L89.0909 13.4545L94.6591 17.909L92.4318 11.2272L98 6.77265H91.3182L89.0909 0.0908314Z" fill="#0078F6" style="fill:#0078F6;fill:color(display-p3 0.0000 0.4706 0.9647);fill-opacity:1;"/>
</svg>
