<svg width="105" height="74" viewBox="0 0 105 74" fill="none" xmlns="http://www.w3.org/2000/svg">
<path d="M94.3686 59.2016H90.5827V72.4255C90.5827 72.8991 90.3133 73.3299 89.8912 73.5289C89.7315 73.605 89.5589 73.6424 89.3887 73.6424C89.1124 73.6424 88.8384 73.5444 88.6192 73.3554L72.1601 59.2016H11.6259C5.76098 59.2016 0.988609 54.3383 0.988609 48.3609V11.4711C0.988609 5.49368 5.76098 0.630371 11.6259 0.630371H94.3686C100.233 0.630371 105.006 5.49368 105.006 11.4711V48.3609C105.006 54.3383 100.233 59.2016 94.3686 59.2016ZM102.618 11.4711C102.618 6.83532 98.9171 3.06411 94.3686 3.06411H11.6259C7.07737 3.06411 3.37654 6.83532 3.37654 11.4711V48.3609C3.37654 52.9967 7.07737 56.7679 11.6259 56.7679H72.5962C72.8784 56.7679 73.1512 56.8695 73.3658 57.0549L88.1947 69.8064V57.9847C88.1947 57.3127 88.7288 56.7679 89.3887 56.7679H94.3686C98.9171 56.7679 102.618 52.9967 102.618 48.3609V11.4711Z" fill="#A2A2A2" style="fill:#A2A2A2;fill:color(display-p3 0.6333 0.6333 0.6333);fill-opacity:1;"/>
</svg>
