<svg width="16" height="16" viewBox="0 0 16 16" fill="none" xmlns="http://www.w3.org/2000/svg">
<g clip-path="url(#clip0_1256_6070)">
<path d="M0.914062 8.44451C0.914062 11.4146 2.64016 13.9819 5.14365 15.198L1.56389 5.39065C1.14765 6.32389 0.914062 7.35663 0.914062 8.44451ZM13.484 8.06599C13.484 7.13826 13.1508 6.49623 12.8653 5.9965C12.485 5.37804 12.1284 4.85499 12.1284 4.23648C12.1284 3.54668 12.6512 2.90466 13.3884 2.90466C13.4218 2.90466 13.4534 2.90872 13.4856 2.91077C12.1507 1.68746 10.3717 0.94043 8.41814 0.94043C5.79648 0.94043 3.49015 2.28571 2.14822 4.32253C2.32458 4.32833 2.49057 4.33194 2.63125 4.33194C3.41596 4.33194 4.63141 4.23653 4.63141 4.23653C5.03579 4.21272 5.08332 4.80716 4.67923 4.85499C4.67923 4.85499 4.27255 4.90257 3.82059 4.92613L6.55312 13.0547L8.19541 8.12953L7.02634 4.92608C6.62195 4.90252 6.23938 4.85494 6.23938 4.85494C5.835 4.83092 5.88228 4.21267 6.28691 4.23648C6.28691 4.23648 7.52593 4.33189 8.2633 4.33189C9.04805 4.33189 10.2635 4.23648 10.2635 4.23648C10.6678 4.21267 10.7157 4.80711 10.3113 4.85494C10.3113 4.85494 9.90415 4.90252 9.45269 4.92608L12.1644 12.9926L12.9129 10.492C13.2935 9.51673 13.484 8.70821 13.484 8.06599ZM8.55002 9.10094L6.29832 15.6434C6.97066 15.8411 7.68172 15.9491 8.41814 15.9491C9.29219 15.9491 10.1303 15.7983 10.9102 15.5237C10.8905 15.4915 10.8718 15.4575 10.8566 15.4202L8.55002 9.10094ZM15.0031 4.84458C15.0355 5.08342 15.0538 5.33977 15.0538 5.61613C15.0538 6.37732 14.911 7.23336 14.4828 8.30383L12.1909 14.9306C14.4221 13.6298 15.9222 11.2129 15.9222 8.44456C15.9222 7.13976 15.5887 5.9132 15.0031 4.84458Z" fill="url(#paint0_linear_1256_6070)" style=""/>
</g>
<defs>
<linearGradient id="paint0_linear_1256_6070" x1="16.3945" y1="-1.42107" x2="1.33317" y2="21.2489" gradientUnits="userSpaceOnUse">
<stop stop-color="#102880" style="stop-color:#102880;stop-color:color(display-p3 0.0627 0.1569 0.5020);stop-opacity:1;"/>
<stop offset="1" stop-color="#1469CD" style="stop-color:#1469CD;stop-color:color(display-p3 0.0784 0.4118 0.8039);stop-opacity:1;"/>
</linearGradient>
<clipPath id="clip0_1256_6070">
<rect width="15.0087" height="15.0087" fill="white" style="fill:white;fill-opacity:1;" transform="translate(0.914062 0.94043)"/>
</clipPath>
</defs>
</svg>
