<svg width="15" height="16" viewBox="0 0 15 16" fill="none" xmlns="http://www.w3.org/2000/svg">
<g clip-path="url(#clip0_1256_5969)">
<path d="M0.109375 7.70267C0.109375 10.6272 1.80902 13.1552 4.27414 14.3527L0.749241 4.69561C0.33938 5.61455 0.109375 6.63147 0.109375 7.70267ZM12.4867 7.32996C12.4867 6.41644 12.1585 5.78426 11.8775 5.29218C11.503 4.6832 11.1519 4.16816 11.1519 3.55914C11.1519 2.87991 11.6666 2.24773 12.3925 2.24773C12.4254 2.24773 12.4566 2.25172 12.4882 2.25374C11.1738 1.04918 9.42209 0.313599 7.49845 0.313599C4.91697 0.313599 2.64598 1.63826 1.32462 3.64387C1.49827 3.64958 1.66172 3.65313 1.80025 3.65313C2.57292 3.65313 3.76975 3.55919 3.76975 3.55919C4.16793 3.53574 4.21473 4.12107 3.81684 4.16816C3.81684 4.16816 3.41639 4.21501 2.97136 4.23821L5.66201 12.2422L7.27913 7.39252L6.12798 4.23817C5.72979 4.21496 5.35308 4.16811 5.35308 4.16811C4.9549 4.14447 5.00145 3.53569 5.39988 3.55914C5.39988 3.55914 6.61991 3.65308 7.34598 3.65308C8.11871 3.65308 9.31548 3.55914 9.31548 3.55914C9.71367 3.53569 9.76076 4.12102 9.36258 4.16811C9.36258 4.16811 8.96168 4.21496 8.51714 4.23817L11.1873 12.1811L11.9244 9.71877C12.299 8.75846 12.4867 7.96233 12.4867 7.32996ZM7.6283 8.34904L5.41111 14.7912C6.07315 14.9859 6.77331 15.0922 7.49845 15.0922C8.35911 15.0922 9.1844 14.9437 9.95234 14.6734C9.93288 14.6417 9.91446 14.6081 9.89953 14.5715L7.6283 8.34904ZM13.9825 4.15792C14.0144 4.39309 14.0324 4.64551 14.0324 4.91764C14.0324 5.66716 13.8918 6.51009 13.4702 7.56415L11.2134 14.0894C13.4104 12.8085 14.8875 10.4286 14.8875 7.70272C14.8875 6.41792 14.5591 5.21016 13.9825 4.15792Z" fill="url(#paint0_linear_1256_5969)" style=""/>
</g>
<defs>
<linearGradient id="paint0_linear_1256_5969" x1="15.3526" y1="-2.01171" x2="0.522061" y2="20.3108" gradientUnits="userSpaceOnUse">
<stop stop-color="#102880" style="stop-color:#102880;stop-color:color(display-p3 0.0627 0.1569 0.5020);stop-opacity:1;"/>
<stop offset="1" stop-color="#1469CD" style="stop-color:#1469CD;stop-color:color(display-p3 0.0784 0.4118 0.8039);stop-opacity:1;"/>
</linearGradient>
<clipPath id="clip0_1256_5969">
<rect width="14.7786" height="14.7786" fill="white" style="fill:white;fill-opacity:1;" transform="translate(0.109375 0.313599)"/>
</clipPath>
</defs>
</svg>
